<?xml version="1.0" standalone="no"?>
<!DOCTYPE svg PUBLIC "-//W3C//DTD SVG 20010904//EN"
 "http://www.w3.org/TR/2001/REC-SVG-20010904/DTD/svg10.dtd">
<svg version="1.0" xmlns="http://www.w3.org/2000/svg"
 width="959.000000pt" height="960.000000pt" viewBox="0 0 959.000000 960.000000"
 preserveAspectRatio="xMidYMid meet">

<g transform="translate(0.000000,960.000000) scale(0.100000,-0.100000)"
fill="#000000" stroke="none">
<path d="M4803 7926 c-55 -25 -80 -108 -52 -170 9 -20 9 -28 -3 -39 -8 -9 -15
-39 -16 -81 l-3 -66 30 0 c17 0 62 -5 100 -12 60 -10 74 -9 114 6 37 14 50 25
67 62 25 50 22 101 -8 126 -9 9 -42 24 -72 36 -58 21 -77 39 -67 66 11 27 62
21 75 -9 7 -14 12 -32 12 -40 0 -8 8 -15 18 -15 35 0 45 17 46 75 l1 57 -40 2
c-22 1 -69 6 -105 9 -48 6 -73 4 -97 -7z m97 -262 c14 -16 7 -42 -14 -50 -23
-9 -74 17 -80 41 -14 51 -10 55 38 39 25 -9 50 -22 56 -30z"/>
<path d="M4545 7920 c-33 -4 -99 -8 -147 -9 -87 -1 -88 -1 -88 -26 0 -18 7
-28 23 -34 23 -9 24 -16 30 -128 7 -111 6 -119 -13 -132 -11 -7 -20 -23 -20
-34 0 -19 4 -20 73 -14 40 4 123 9 185 13 l112 7 0 84 0 84 -27 -3 c-24 -3
-30 -10 -42 -55 -8 -29 -19 -54 -25 -54 -75 -8 -86 -3 -86 46 l0 45 50 0 c52
0 55 4 43 49 -5 22 -9 23 -54 17 l-49 -7 0 39 c0 33 4 41 23 46 50 13 68 7 83
-30 12 -30 19 -35 42 -32 29 3 29 4 17 91 -7 53 -4 52 -130 37z"/>
<path d="M5110 7896 c0 -16 6 -26 14 -26 22 0 24 -19 11 -105 -21 -143 -25
-157 -46 -162 -12 -3 -19 -14 -19 -28 0 -21 6 -23 83 -29 45 -4 124 -14 176
-22 51 -8 96 -13 98 -10 6 6 32 124 33 149 0 12 -8 17 -29 17 -25 0 -31 -6
-50 -51 l-21 -52 -42 7 c-24 4 -46 10 -50 14 -3 4 -3 25 1 47 7 43 1 41 85 32
13 -1 22 6 26 23 10 36 -6 50 -55 50 l-42 0 6 38 c7 36 8 37 49 36 50 -1 52
-3 61 -46 6 -28 11 -33 35 -33 27 0 28 1 32 68 4 59 3 67 -13 67 -16 1 -181
21 -300 37 -41 5 -43 4 -43 -21z"/>
<path d="M4170 7886 c-59 -11 -65 -14 -65 -36 0 -20 6 -26 30 -30 31 -5 42
-28 43 -90 1 -22 -9 -14 -71 52 l-72 78 -92 -18 c-85 -15 -93 -19 -93 -39 0
-13 6 -23 13 -23 35 0 47 -26 64 -139 16 -106 16 -114 0 -123 -9 -5 -17 -17
-18 -26 0 -10 -3 -12 -6 -4 -2 6 -13 12 -24 12 -20 0 -57 51 -149 208 -33 55
-47 71 -59 66 -9 -4 -57 -19 -108 -33 -51 -15 -95 -30 -98 -33 -4 -4 -4 -16 0
-27 4 -15 15 -21 36 -21 l29 0 0 -128 c0 -176 -7 -182 -140 -102 -46 28 -85
52 -88 54 -7 8 20 80 45 120 22 34 23 40 10 53 -13 13 -20 12 -63 -11 -27 -14
-55 -26 -61 -26 -16 0 -17 -32 -2 -47 8 -8 7 -26 -5 -65 -24 -79 -31 -87 -50
-50 -18 35 -21 72 -6 72 12 0 13 30 2 48 -7 10 -22 6 -68 -16 -32 -16 -80 -37
-106 -47 -27 -10 -48 -21 -48 -24 0 -15 26 -39 45 -43 14 -2 31 -30 62 -103
24 -55 42 -109 40 -120 -3 -25 -45 -47 -67 -35 -9 5 -64 56 -123 114 l-108
106 -42 -28 c-23 -16 -68 -43 -99 -61 -59 -33 -69 -49 -44 -70 11 -9 20 -9 35
-2 11 6 22 11 24 11 7 0 57 -212 57 -242 0 -50 -24 -55 -96 -20 -36 18 -69 30
-74 27 -5 -3 -6 10 -3 30 8 48 -12 91 -52 109 -47 22 -77 9 -201 -89 -57 -46
-113 -89 -125 -96 -28 -19 -16 -53 18 -46 27 5 50 -19 128 -128 39 -54 46 -71
38 -84 -12 -20 1 -51 21 -51 7 0 21 9 32 21 10 12 47 42 82 67 69 51 77 76 25
78 -46 1 -93 61 -63 79 12 7 89 -35 110 -59 19 -24 29 -21 110 40 41 30 99 69
128 86 57 32 66 60 22 67 -25 3 -40 17 -40 37 0 6 18 20 39 32 38 22 40 22 50
5 5 -10 7 -30 4 -45 -4 -19 -1 -30 9 -33 12 -5 159 73 193 102 12 10 180 83
192 83 4 0 14 4 22 9 20 13 -4 51 -33 51 -19 0 -28 9 -40 41 -9 23 -15 44 -12
47 5 4 55 -30 88 -60 56 -52 49 -51 123 -17 74 33 180 69 208 69 27 0 23 48
-5 52 -16 2 -24 11 -26 29 -3 22 2 27 39 38 34 10 43 10 50 -1 12 -18 11 -36
-1 -43 -12 -8 -13 -42 -2 -49 5 -3 32 3 59 14 62 23 231 66 296 75 42 6 48 9
45 28 -2 16 -11 23 -31 25 -31 4 -41 22 -52 96 l-7 46 87 -85 88 -85 49 6 c27
4 51 10 53 14 3 4 -4 61 -15 126 -24 146 -24 172 -4 195 18 20 12 50 -8 48 -7
-1 -42 -7 -78 -13z m-540 -295 c17 -34 18 -40 4 -45 -29 -11 -34 -6 -34 39 0
25 2 45 5 45 2 0 14 -18 25 -39z m-827 -418 c-24 -19 -30 -16 -37 15 -4 15
-10 36 -13 47 -4 15 3 12 31 -15 34 -32 35 -36 19 -47z m-373 -155 c11 -21 12
-32 4 -45 -18 -29 -32 -25 -59 18 -22 33 -24 43 -13 50 23 15 52 5 68 -23z"/>
<path d="M5752 7800 c-47 -11 -89 -55 -112 -117 -33 -88 -22 -161 32 -210 59
-55 229 -82 284 -46 38 24 70 81 83 145 16 75 2 126 -43 166 -51 45 -180 77
-244 62z m136 -72 c17 -17 15 -74 -4 -138 -42 -142 -123 -162 -110 -27 12 119
72 207 114 165z"/>
<path d="M6141 7692 c-7 -14 -6 -24 5 -40 13 -19 11 -29 -27 -119 -48 -113
-55 -123 -80 -123 -16 0 -47 -37 -37 -45 7 -6 184 -77 204 -82 28 -6 40 24 19
47 -19 21 -19 33 1 71 13 26 18 29 31 18 12 -11 14 -27 9 -86 l-7 -73 48 -20
c26 -11 56 -24 65 -30 24 -14 48 -13 49 3 4 41 -4 155 -12 170 -8 13 -6 17 10
17 35 0 72 41 78 87 8 62 -23 88 -177 148 -69 26 -135 55 -147 62 -19 13 -23
12 -32 -5z m199 -137 c20 -25 -11 -85 -44 -85 -35 0 -37 9 -15 58 21 44 38 52
59 27z"/>
<path d="M6594 7451 c-127 -58 -168 -259 -67 -328 27 -18 196 -103 206 -103 2
0 21 25 41 55 20 30 43 55 51 55 8 0 19 9 24 19 12 22 8 26 -69 65 -30 16 -63
35 -72 43 -33 29 -68 -13 -37 -44 14 -14 -15 -73 -36 -73 -9 0 -20 11 -27 24
-22 50 65 196 117 196 22 0 63 -21 69 -35 2 -7 1 -29 -4 -48 -9 -41 -6 -47 26
-47 19 0 30 13 53 60 l30 60 -39 20 c-21 11 -58 33 -82 49 -38 26 -105 51
-133 51 -5 0 -29 -9 -51 -19z"/>
<path d="M7004 7245 c-4 -17 -1 -32 10 -44 16 -18 12 -22 -85 -95 -65 -49
-110 -76 -123 -74 -25 3 -46 -9 -46 -25 0 -7 24 -28 53 -47 66 -45 65 -44 82
-30 11 9 12 17 4 32 -7 14 -7 23 2 34 16 19 29 17 63 -10 25 -21 27 -26 16
-45 -7 -14 -17 -20 -27 -17 -16 6 -43 -10 -43 -25 0 -4 28 -27 63 -50 81 -55
127 -92 198 -158 37 -34 64 -51 74 -48 17 7 20 42 5 52 -18 11 -10 30 35 80
l45 50 -6 -50 c-3 -27 -10 -74 -15 -104 -14 -84 -12 -93 32 -130 l41 -34 100
107 c81 85 105 106 128 106 15 0 33 7 40 15 10 12 3 23 -42 64 -57 54 -69 59
-87 37 -9 -10 -9 -20 0 -40 11 -24 9 -30 -21 -61 -19 -19 -35 -33 -38 -31 -2
3 4 48 13 101 l16 97 -68 64 c-37 35 -71 63 -75 64 -15 1 -30 -42 -19 -53 6
-6 11 -15 11 -19 0 -5 -37 -47 -82 -93 -66 -69 -86 -85 -108 -83 -45 3 -53 43
-23 120 13 34 31 81 40 103 8 22 23 59 33 82 l19 41 -99 71 c-55 39 -102 71
-104 71 -3 0 -8 -11 -12 -25z m30 -183 c-16 -40 -16 -41 -40 -25 l-24 15 37
29 c20 16 38 28 40 25 2 -2 -4 -22 -13 -44z"/>
<path d="M4505 7226 c-161 -18 -311 -43 -420 -72 -91 -23 -323 -97 -360 -114
-11 -5 -49 -21 -85 -36 -480 -196 -931 -562 -1266 -1026 -212 -293 -392 -715
-468 -1098 -45 -224 -59 -361 -59 -585 -1 -433 80 -820 251 -1205 111 -250
243 -464 420 -678 275 -336 601 -591 998 -784 410 -198 808 -288 1279 -288
444 0 827 80 1211 254 678 307 1220 859 1504 1531 341 804 313 1712 -75 2485
-145 289 -296 498 -530 739 -387 396 -827 652 -1375 800 -278 74 -735 109
-1025 77z m255 -573 c0 -15 -2 -16 -10 -3 -9 13 -10 13 -10 0 0 -12 -2 -13 -9
-1 -6 9 -23 12 -54 10 -25 -2 -43 -1 -40 4 2 4 31 7 64 7 50 0 59 -3 59 -17z
m169 -4 c66 -1 123 -5 126 -9 6 -10 120 -25 158 -22 15 2 27 -2 27 -7 0 -6 11
-11 25 -11 14 0 25 -4 25 -10 0 -5 7 -7 16 -3 10 3 22 0 28 -8 6 -8 31 -15 56
-16 l45 -1 -42 10 c-24 6 -43 15 -43 19 0 5 12 4 26 -1 14 -6 37 -10 51 -10
15 0 23 -3 19 -7 -16 -16 150 -83 191 -76 23 4 25 2 13 -7 -12 -9 -10 -11 12
-7 15 2 25 0 22 -5 -3 -5 7 -6 23 -2 27 6 27 6 8 -10 -19 -17 -18 -17 20 -11
38 6 39 6 20 -10 -19 -16 -18 -16 17 -10 30 5 37 3 32 -9 -6 -16 28 -32 59
-27 10 1 27 -9 39 -24 14 -18 26 -24 39 -20 13 4 19 2 19 -8 0 -17 24 -29 44
-21 9 3 13 -1 13 -13 -2 -12 4 -17 16 -15 11 2 25 -5 33 -15 7 -10 14 -14 14
-10 0 4 9 3 20 -3 11 -6 19 -14 16 -18 -2 -4 7 -15 20 -25 16 -12 24 -14 24
-5 0 9 3 9 13 -1 9 -11 9 -14 0 -18 -10 -4 -9 -8 1 -19 19 -19 32 -18 16 1
-10 12 -10 15 4 15 9 0 16 -3 16 -7 0 -5 18 -16 39 -27 24 -11 37 -24 34 -31
-2 -7 5 -16 16 -20 12 -3 27 -12 33 -18 7 -7 36 -30 63 -52 273 -216 545 -633
664 -1015 86 -277 112 -463 105 -745 -7 -271 -8 -294 -15 -289 -3 2 -9 -20
-13 -49 -3 -28 -8 -65 -11 -82 -4 -24 -3 -26 4 -10 8 16 10 16 10 4 1 -9 -5
-22 -13 -28 -15 -13 -41 -134 -32 -149 3 -6 2 -12 -4 -14 -12 -4 -51 -139 -44
-150 3 -4 0 -8 -7 -8 -6 0 -9 -8 -6 -20 3 -11 2 -20 -1 -20 -7 0 -41 -77 -46
-102 -1 -7 -17 -43 -34 -79 -18 -36 -32 -68 -32 -72 0 -11 -103 -182 -123
-204 -11 -13 -17 -23 -13 -23 4 0 2 -6 -4 -12 -16 -20 -107 -145 -117 -161
-20 -34 -84 -107 -168 -191 -49 -49 -89 -93 -88 -98 2 -4 -6 -8 -17 -8 -11 0
-20 -6 -20 -14 0 -8 -5 -18 -12 -22 -7 -5 -8 -3 -2 7 4 8 -10 -3 -31 -24 -22
-22 -52 -45 -67 -53 -16 -8 -28 -17 -28 -20 0 -3 5 -2 12 2 7 4 8 3 4 -5 -4
-6 -11 -9 -15 -7 -13 8 -51 -24 -51 -42 0 -12 -3 -13 -8 -5 -6 9 -16 5 -38
-15 -17 -15 -52 -38 -79 -52 -26 -14 -49 -31 -52 -38 -3 -6 -9 -12 -14 -12 -5
0 -53 -24 -106 -54 -118 -66 -134 -70 -144 -36 -7 24 -7 24 -8 3 -1 -13 -5
-23 -11 -23 -5 0 -7 -7 -4 -15 4 -8 1 -15 -5 -15 -7 0 -14 7 -18 16 -5 15 -7
15 -15 0 -5 -9 -19 -16 -31 -17 -20 0 -20 -1 -3 -8 29 -11 -64 -44 -99 -35
-22 5 -26 4 -20 -6 5 -9 4 -11 -3 -6 -7 4 -28 -4 -47 -17 -32 -22 -45 -24
-118 -21 -63 2 -75 1 -52 -7 17 -5 39 -7 49 -5 13 3 16 2 9 -5 -6 -6 -45 -10
-87 -10 -42 0 -74 -4 -71 -8 3 -5 -5 -7 -16 -4 -14 4 -25 0 -30 -10 -7 -12
-18 -14 -46 -10 -29 5 -35 3 -28 -8 8 -12 6 -12 -8 0 -9 7 -17 10 -17 5 0 -5
-30 -8 -67 -8 -41 1 -71 -3 -76 -10 -5 -7 -10 -7 -13 -1 -2 6 -70 9 -181 8
-106 -2 -172 1 -164 6 19 13 -79 20 -103 8 -15 -7 -23 -5 -32 7 -19 27 -69 37
-88 18 -14 -14 -16 -14 -22 1 -3 9 -11 14 -16 11 -5 -4 -25 2 -44 12 -30 16
-36 17 -44 4 -8 -12 -10 -12 -16 3 -4 10 -22 20 -45 23 -23 4 -39 12 -39 20 0
8 -6 14 -14 14 -7 0 -29 2 -47 5 l-34 5 30 -14 c34 -17 11 -22 -29 -6 -17 6
-24 14 -20 25 3 8 1 15 -5 15 -6 0 -11 -4 -11 -9 0 -5 -9 -7 -20 -4 -11 3 -18
9 -15 13 3 4 -2 10 -9 13 -8 3 -17 1 -20 -6 -2 -7 -5 -2 -5 10 -1 28 -18 39
-24 16 -4 -15 -6 -14 -12 6 l-8 24 -19 -24 c-11 -13 -16 -18 -12 -10 5 11 3
13 -10 8 -10 -4 -15 -3 -11 3 5 8 -7 14 -17 9 -2 -1 -29 12 -60 29 -89 49
-102 56 -120 71 -10 8 -18 11 -18 8 0 -7 -175 110 -221 147 -51 41 -82 61 -91
58 -5 -1 -7 2 -4 7 4 5 0 13 -8 18 -44 25 -249 225 -321 313 -20 25 -43 53
-51 63 -7 9 -10 17 -6 17 4 0 3 4 -3 8 -15 11 -119 170 -156 239 -18 34 -37
59 -41 57 -4 -3 -5 2 -2 10 4 9 -1 18 -10 22 -9 3 -16 17 -16 31 0 16 -4 22
-12 17 -6 -4 -8 -3 -5 4 10 15 -3 43 -16 35 -6 -3 -7 -1 -3 5 4 6 -6 40 -23
74 -68 146 -148 417 -173 583 -19 130 -15 609 6 735 41 244 106 448 210 658
25 50 46 97 46 102 0 6 5 10 10 10 6 0 10 7 10 15 0 8 5 15 10 15 6 0 10 5 10
11 0 14 117 193 179 274 89 117 204 239 301 320 103 85 115 91 134 63 18 -26
20 -20 6 16 -11 31 3 35 38 10 29 -20 29 -7 0 18 l-23 20 27 -7 c21 -5 27 -3
33 14 3 12 11 21 16 21 6 0 8 4 5 8 -3 5 7 15 22 23 15 8 30 18 34 24 5 6 8 5
8 -2 0 -13 17 -10 58 10 16 7 21 17 17 31 -3 12 -2 16 1 10 3 -9 13 -8 36 3
23 12 27 18 17 25 -15 10 -15 11 39 -7 21 -6 23 -5 13 13 -12 23 -3 36 15 21
7 -6 19 -7 25 -3 9 5 7 10 -7 16 -15 7 -13 7 9 4 19 -2 34 4 50 20 12 13 29
24 37 24 9 0 26 7 38 16 12 8 26 13 30 10 9 -6 106 26 124 42 8 6 25 8 38 5
18 -5 22 -3 17 9 -3 9 0 15 6 15 31 -1 48 4 43 12 -4 5 3 7 14 4 11 -3 20 0
20 6 0 6 12 11 28 10 24 0 25 -1 7 -9 -15 -6 -11 -8 16 -7 21 1 36 4 35 7 -2
3 5 13 16 23 10 9 18 13 18 7 0 -5 7 -10 15 -10 8 0 15 4 15 10 0 5 7 7 15 4
8 -4 15 -1 15 5 0 15 27 14 33 -1 3 -10 13 -8 38 6 49 26 81 38 74 26 -4 -6 5
-10 20 -10 14 0 24 3 21 8 -2 4 40 8 95 9 64 1 99 -2 99 -9 0 -5 7 -8 15 -4
12 4 14 0 10 -22 -4 -19 0 -14 15 16 16 33 24 41 34 33 8 -7 64 -11 135 -12z
m-66 14 c-13 -2 -33 -2 -45 0 -13 2 -3 4 22 4 25 0 35 -2 23 -4z m254 -19 c-3
-3 -12 -4 -19 -1 -8 3 -5 6 6 6 11 1 17 -2 13 -5z m-717 -24 c0 -5 -5 -10 -11
-10 -5 0 -7 5 -4 10 3 6 8 10 11 10 2 0 4 -4 4 -10z m927 -16 c-3 -3 -12 -4
-19 -1 -8 3 -5 6 6 6 11 1 17 -2 13 -5z m160 -40 c-3 -3 -12 -4 -19 -1 -8 3
-5 6 6 6 11 1 17 -2 13 -5z m64 -32 c-7 -2 -18 1 -23 6 -8 8 -4 9 13 5 13 -4
18 -8 10 -11z m-2121 -312 c0 -5 -5 -10 -11 -10 -5 0 -7 5 -4 10 3 6 8 10 11
10 2 0 4 -4 4 -10z m3727 -2272 c-3 -8 -6 -5 -6 6 -1 11 2 17 5 13 3 -3 4 -12
1 -19z m-2770 -2004 c-3 -3 -12 -4 -19 -1 -8 3 -5 6 6 6 11 1 17 -2 13 -5z"/>
<path d="M4821 6604 c0 -11 3 -14 6 -6 3 7 2 16 -1 19 -3 4 -6 -2 -5 -13z"/>
<path d="M4830 6575 c0 -5 5 -17 10 -25 5 -8 10 -10 10 -5 0 6 -5 17 -10 25
-5 8 -10 11 -10 5z"/>
<path d="M4862 6560 c0 -14 2 -19 5 -12 2 6 2 18 0 25 -3 6 -5 1 -5 -13z"/>
<path d="M4717 6540 c-3 -11 -3 -20 -1 -20 2 0 8 9 14 20 6 11 7 20 2 20 -6 0
-12 -9 -15 -20z"/>
<path d="M4690 6460 c0 -11 2 -20 4 -20 2 0 6 9 9 20 3 11 1 20 -4 20 -5 0 -9
-9 -9 -20z"/>
<path d="M4873 6467 c4 -10 7 -22 7 -27 0 -4 7 -10 15 -14 13 -4 12 -1 -2 22
-23 36 -28 41 -20 19z"/>
<path d="M4661 6440 c0 -8 4 -24 9 -35 l9 -20 0 20 c0 11 -4 27 -9 35 -9 13
-10 13 -9 0z"/>
<path d="M4926 6402 c-3 -5 1 -9 9 -9 8 0 15 4 15 9 0 4 -4 8 -9 8 -6 0 -12
-4 -15 -8z"/>
<path d="M4651 6366 c-7 -8 -11 -25 -8 -38 4 -21 4 -21 6 4 0 14 7 28 14 31 6
2 9 7 6 11 -3 4 -12 0 -18 -8z"/>
<path d="M4920 6335 c0 -5 5 -17 10 -25 5 -8 10 -10 10 -5 0 6 -5 17 -10 25
-5 8 -10 11 -10 5z"/>
<path d="M4617 6297 c-4 -10 -7 -28 -6 -40 0 -21 1 -21 10 2 5 14 8 32 7 40
-3 13 -5 13 -11 -2z"/>
<path d="M4946 6283 c-6 -14 -5 -15 5 -6 7 7 10 15 7 18 -3 3 -9 -2 -12 -12z"/>
<path d="M3478 6243 c6 -2 18 -2 25 0 6 3 1 5 -13 5 -14 0 -19 -2 -12 -5z"/>
<path d="M4955 6230 c3 -5 8 -10 11 -10 2 0 4 5 4 10 0 6 -5 10 -11 10 -5 0
-7 -4 -4 -10z"/>
<path d="M4561 6180 c0 -8 4 -22 9 -30 12 -18 12 -2 0 25 -6 13 -9 15 -9 5z"/>
<path d="M5025 6160 c-3 -5 -1 -10 4 -10 6 0 11 5 11 10 0 6 -2 10 -4 10 -3 0
-8 -4 -11 -10z"/>
<path d="M6200 6140 c-19 -16 -29 -29 -22 -30 6 0 12 5 12 10 0 6 6 10 13 10
7 0 18 9 25 20 16 27 12 25 -28 -10z"/>
<path d="M3390 6143 c0 -13 29 -38 35 -31 3 3 -4 13 -15 23 -11 10 -20 13 -20
8z"/>
<path d="M6248 6143 c7 -3 16 -2 19 1 4 3 -2 6 -13 5 -11 0 -14 -3 -6 -6z"/>
<path d="M5001 6130 c0 -8 4 -24 9 -35 5 -13 9 -14 9 -5 0 8 -4 24 -9 35 -5
13 -9 14 -9 5z"/>
<path d="M3380 6110 c0 -5 5 -10 11 -10 5 0 7 5 4 10 -3 6 -8 10 -11 10 -2 0
-4 -4 -4 -10z"/>
<path d="M3417 6065 c10 -13 22 -25 27 -25 5 0 -1 11 -14 25 -30 32 -36 32
-13 0z"/>
<path d="M6156 6081 c-4 -5 -2 -12 3 -15 5 -4 12 -2 15 3 4 5 2 12 -3 15 -5 4
-12 2 -15 -3z"/>
<path d="M4541 6073 c-1 -6 -4 -20 -7 -30 -5 -17 -5 -17 6 0 6 10 9 23 6 30
-3 9 -5 9 -5 0z"/>
<path d="M4507 6053 c-13 -47 -16 -89 -7 -103 8 -11 9 -7 4 15 -4 20 -3 26 4
17 7 -11 10 -10 16 3 9 25 7 32 -5 15 -8 -11 -9 -4 -5 28 6 42 2 57 -7 25z"/>
<path d="M6122 6040 c-7 -11 -9 -20 -4 -20 10 0 32 22 32 32 0 15 -15 8 -28
-12z"/>
<path d="M3502 6034 c-7 -8 -8 -14 -3 -14 10 0 25 19 20 25 -2 1 -10 -3 -17
-11z"/>
<path d="M6078 6013 c-7 -27 2 -36 22 -22 9 5 10 9 3 9 -6 0 -13 8 -15 18 -3
14 -5 13 -10 -5z"/>
<path d="M3493 5988 c12 -13 23 -20 25 -16 2 4 11 4 20 1 15 -6 14 -3 -2 15
-23 27 -27 28 -19 5 6 -17 5 -17 -14 0 -28 25 -36 21 -10 -5z"/>
<path d="M5051 5995 c1 -19 18 -51 18 -35 0 8 -4 22 -9 30 -5 8 -9 11 -9 5z"/>
<path d="M6030 5990 c0 -5 5 -10 10 -10 6 0 10 5 10 10 0 6 -4 10 -10 10 -5 0
-10 -4 -10 -10z"/>
<path d="M6050 5960 c-8 -5 -12 -12 -9 -15 4 -3 12 1 19 10 14 17 11 19 -10 5z"/>
<path d="M3539 5943 c5 -10 22 -29 37 -43 24 -22 23 -20 -6 18 -35 44 -47 54
-31 25z"/>
<path d="M3570 5950 c0 -5 5 -10 10 -10 6 0 10 5 10 10 0 6 -4 10 -10 10 -5 0
-10 -4 -10 -10z"/>
<path d="M5071 5940 c-1 -3 7 -27 17 -54 13 -32 21 -43 25 -33 3 9 3 17 -1 19
-4 2 -15 19 -24 38 -9 19 -17 33 -17 30z"/>
<path d="M6004 5916 c-10 -8 -16 -17 -13 -20 3 -3 14 3 24 14 21 23 17 26 -11
6z"/>
<path d="M4440 5909 c0 -5 5 -7 10 -4 6 3 10 8 10 11 0 2 -4 4 -10 4 -5 0 -10
-5 -10 -11z"/>
<path d="M4465 5884 c-10 -19 -18 -41 -18 -50 0 -10 -7 -14 -19 -11 -10 3 -21
1 -24 -4 -3 -5 6 -9 21 -9 19 0 28 7 35 28 6 15 16 37 22 49 19 38 4 35 -17
-3z"/>
<path d="M5949 5903 c-13 -16 -12 -17 4 -4 16 13 21 21 13 21 -2 0 -10 -8 -17
-17z"/>
<path d="M3610 5906 c0 -2 8 -10 18 -17 15 -13 16 -12 3 4 -13 16 -21 21 -21
13z"/>
<path d="M5945 5860 c-10 -11 -15 -20 -11 -20 4 0 16 9 28 20 12 11 17 20 11
20 -5 0 -18 -9 -28 -20z"/>
<path d="M3620 5850 c13 -11 25 -20 27 -20 2 0 -2 9 -9 20 -7 11 -19 20 -27
20 -9 0 -6 -7 9 -20z"/>
<path d="M3660 5851 c0 -10 39 -45 44 -40 3 2 -6 14 -20 26 -13 12 -24 18 -24
14z"/>
<path d="M5117 5833 c-9 -9 -9 -25 1 -41 7 -10 18 -8 53 8 24 12 33 18 19 15
-43 -12 -63 -10 -68 4 -3 10 0 12 12 8 10 -4 15 -3 11 3 -7 12 -19 13 -28 3z"/>
<path d="M5865 5815 c-35 -36 -31 -45 5 -10 16 16 33 26 36 22 3 -3 -10 -20
-30 -37 -20 -18 -36 -36 -36 -41 0 -5 20 10 45 33 32 30 41 44 33 50 -20 12
-25 10 -53 -17z"/>
<path d="M4343 5823 c9 -2 25 -2 35 0 9 3 1 5 -18 5 -19 0 -27 -2 -17 -5z"/>
<path d="M3665 5800 c10 -11 20 -18 23 -16 5 6 -23 36 -34 36 -4 0 1 -9 11
-20z"/>
<path d="M5220 5816 c0 -2 7 -9 15 -16 9 -7 15 -8 15 -2 0 5 -7 12 -15 16 -8
3 -15 4 -15 2z"/>
<path d="M4218 5796 c-10 -7 -18 -17 -18 -21 0 -4 7 -2 15 5 8 7 30 16 48 20
l32 8 -30 1 c-16 0 -38 -6 -47 -13z"/>
<path d="M3700 5776 c0 -5 13 -23 29 -42 24 -27 30 -30 36 -16 3 9 3 13 -1 9
-4 -4 -20 7 -36 25 -15 17 -28 28 -28 24z"/>
<path d="M5210 5765 c-11 -13 -10 -14 4 -9 9 3 16 10 16 15 0 13 -6 11 -20 -6z"/>
<path d="M4133 5743 c-10 -10 -14 -14 -7 -10 7 4 15 3 19 -4 6 -8 10 -7 16 2
20 32 2 39 -28 12z"/>
<path d="M5805 5730 c-3 -5 -2 -10 4 -10 5 0 13 5 16 10 3 6 2 10 -4 10 -5 0
-13 -4 -16 -10z"/>
<path d="M4084 5686 c-8 -32 5 -76 16 -55 4 8 10 25 14 39 5 21 4 20 -9 -5
l-15 -30 5 38 c5 42 -1 50 -11 13z"/>
<path d="M5175 5688 c-4 -15 -2 -35 4 -45 9 -15 10 -13 5 12 -4 23 -3 26 5 15
12 -17 13 -4 1 25 -7 19 -8 18 -15 -7z"/>
<path d="M3790 5680 c0 -5 5 -10 11 -10 5 0 7 5 4 10 -3 6 -8 10 -11 10 -2 0
-4 -4 -4 -10z"/>
<path d="M5800 5660 c0 -6 11 -14 23 -19 13 -5 35 -23 50 -40 14 -17 31 -31
36 -31 6 0 -14 23 -44 50 -58 52 -65 57 -65 40z"/>
<path d="M3726 5634 c-15 -14 -26 -28 -22 -31 3 -3 15 6 27 21 11 14 25 23 31
20 7 -4 8 -2 4 4 -9 15 -6 16 -40 -14z"/>
<path d="M5194 5605 c8 -33 32 -94 40 -102 13 -13 -5 46 -26 85 -10 21 -17 28
-14 17z"/>
<path d="M4082 5580 c0 -14 2 -19 5 -12 2 6 2 18 0 25 -3 6 -5 1 -5 -13z"/>
<path d="M5850 5581 c0 -5 5 -13 10 -16 6 -3 10 -2 10 4 0 5 -4 13 -10 16 -5
3 -10 2 -10 -4z"/>
<path d="M3647 5544 c3 -7 9 -14 14 -14 14 0 10 17 -5 23 -10 4 -13 1 -9 -9z"/>
<path d="M5935 5530 c-3 -5 -1 -10 4 -10 6 0 11 5 11 10 0 6 -2 10 -4 10 -3 0
-8 -4 -11 -10z"/>
<path d="M5271 5510 c-1 -18 -4 -21 -10 -12 -6 11 -10 10 -15 -4 -4 -10 -1
-21 6 -25 15 -9 31 25 25 50 -3 9 -5 5 -6 -9z"/>
<path d="M5960 5512 c0 -12 19 -26 26 -19 2 2 -2 10 -11 17 -9 8 -15 8 -15 2z"/>
<path d="M4082 5490 c0 -14 2 -19 5 -12 2 6 2 18 0 25 -3 6 -5 1 -5 -13z"/>
<path d="M5936 5501 c-4 -7 -5 -15 -2 -18 9 -9 19 4 14 18 -4 11 -6 11 -12 0z"/>
<path d="M3591 5493 c-1 -6 -4 -20 -7 -30 -5 -17 -5 -17 6 0 6 10 9 23 6 30
-3 9 -5 9 -5 0z"/>
<path d="M3545 5459 c-4 -6 -5 -12 -2 -15 2 -3 7 2 10 11 7 17 1 20 -8 4z"/>
<path d="M4087 5441 c-3 -14 -1 -33 4 -43 5 -10 7 -23 4 -28 -3 -6 -4 -10 -1
-10 16 0 22 38 11 70 -11 32 -12 33 -18 11z"/>
<path d="M6018 5453 c6 -2 9 -10 6 -15 -4 -7 -2 -8 5 -4 13 9 5 26 -12 25 -9
0 -8 -2 1 -6z"/>
<path d="M5262 5443 c-9 -3 -1 -13 22 -29 37 -25 46 -29 46 -16 0 4 -14 13
-30 20 -17 8 -28 18 -24 23 6 10 5 10 -14 2z"/>
<path d="M6040 5423 c0 -5 13 -17 28 -27 l27 -19 -24 26 c-26 28 -31 32 -31
20z"/>
<path d="M3492 5400 c-8 -13 -8 -20 -1 -20 5 0 7 -5 3 -11 -4 -7 -1 -10 6 -7
8 2 16 10 18 18 3 8 0 10 -8 5 -9 -5 -10 -2 -5 14 8 26 3 27 -13 1z"/>
<path d="M6000 5416 c0 -2 7 -9 15 -16 9 -7 15 -8 15 -2 0 5 -7 12 -15 16 -8
3 -15 4 -15 2z"/>
<path d="M5468 5403 c7 -3 16 -2 19 1 4 3 -2 6 -13 5 -11 0 -14 -3 -6 -6z"/>
<path d="M5350 5390 c-11 -7 -5 -8 20 -4 26 4 31 3 20 -5 -12 -9 -9 -11 15
-11 17 0 37 5 45 10 11 8 8 9 -12 4 -18 -4 -28 -2 -28 5 0 14 -40 14 -60 1z"/>
<path d="M4120 5370 c0 -5 5 -10 11 -10 5 0 7 5 4 10 -3 6 -8 10 -11 10 -2 0
-4 -4 -4 -10z"/>
<path d="M5473 5368 c0 -7 -4 -22 -8 -33 -7 -20 -6 -20 9 -1 17 21 21 46 8 46
-5 0 -9 -6 -9 -12z"/>
<path d="M3455 5347 c-25 -30 -58 -80 -48 -74 6 4 14 1 17 -5 3 -7 4 -4 3 7
-1 12 3 19 11 17 8 -1 11 2 7 8 -4 7 3 22 16 36 12 13 18 24 13 24 -5 -1 -14
-6 -19 -13z"/>
<path d="M5511 5344 c0 -11 3 -14 6 -6 3 7 2 16 -1 19 -3 4 -6 -2 -5 -13z"/>
<path d="M3778 5343 c6 -2 18 -2 25 0 6 3 1 5 -13 5 -14 0 -19 -2 -12 -5z"/>
<path d="M3978 5343 c7 -3 16 -2 19 1 4 3 -2 6 -13 5 -11 0 -14 -3 -6 -6z"/>
<path d="M4130 5345 c0 -4 8 -18 19 -31 l19 -24 0 26 c0 14 -3 22 -6 20 -3 -3
-11 -1 -19 5 -7 6 -13 8 -13 4z"/>
<path d="M5613 5343 c9 -2 23 -2 30 0 6 3 -1 5 -18 5 -16 0 -22 -2 -12 -5z"/>
<path d="M5758 5343 c6 -2 18 -2 25 0 6 3 1 5 -13 5 -14 0 -19 -2 -12 -5z"/>
<path d="M6107 5333 c-15 -14 -6 -25 9 -12 15 12 16 11 9 -11 -7 -22 -6 -23 9
-11 12 10 14 17 5 27 -13 15 -22 17 -32 7z"/>
<path d="M3470 5314 c0 -14 3 -14 15 -4 8 7 15 14 15 16 0 2 -7 4 -15 4 -8 0
-15 -7 -15 -16z"/>
<path d="M3824 5319 c-3 -5 -17 -10 -32 -10 -15 -1 -20 -3 -12 -5 9 -3 33 -1
55 4 34 7 36 9 18 14 -13 3 -26 2 -29 -3z"/>
<path d="M3908 5323 c7 -3 16 -2 19 1 4 3 -2 6 -13 5 -11 0 -14 -3 -6 -6z"/>
<path d="M3985 5320 c-3 -5 -1 -10 4 -10 6 0 11 5 11 10 0 6 -2 10 -4 10 -3 0
-8 -4 -11 -10z"/>
<path d="M5407 5311 c-39 -26 -41 -29 -14 -27 14 0 23 4 21 8 -2 4 0 9 6 13 5
3 10 1 10 -4 0 -6 8 -11 18 -11 16 1 16 1 0 14 -10 7 -15 16 -11 19 11 11 0 7
-30 -12z"/>
<path d="M4180 5311 c0 -5 7 -12 16 -15 9 -3 12 -11 8 -18 -5 -8 -2 -9 9 -5
10 3 17 2 17 -3 0 -6 5 -10 10 -10 20 0 9 15 -25 38 -19 12 -35 18 -35 13z"/>
<path d="M5795 5306 c50 -7 99 -9 110 -5 15 6 10 8 -20 8 -22 1 -71 3 -110 6
-67 4 -66 4 20 -9z"/>
<path d="M3700 5300 c0 -6 11 -8 28 -4 39 10 40 14 4 14 -18 0 -32 -5 -32 -10z"/>
<path d="M3928 5303 c7 -3 16 -2 19 1 4 3 -2 6 -13 5 -11 0 -14 -3 -6 -6z"/>
<path d="M5663 5303 c9 -2 23 -2 30 0 6 3 -1 5 -18 5 -16 0 -22 -2 -12 -5z"/>
<path d="M3970 5290 c19 -13 30 -13 30 0 0 6 -10 10 -22 10 -19 0 -20 -2 -8
-10z"/>
<path d="M4110 5290 c0 -5 5 -10 10 -10 6 0 10 5 10 10 0 6 -4 10 -10 10 -5 0
-10 -4 -10 -10z"/>
<path d="M5608 5293 c7 -3 16 -2 19 1 4 3 -2 6 -13 5 -11 0 -14 -3 -6 -6z"/>
<path d="M3670 5280 c-8 -5 -24 -7 -35 -4 -17 4 -17 3 -5 -6 12 -9 10 -10 -10
-8 -14 2 -28 7 -31 12 -4 5 -17 -1 -30 -13 -12 -11 -27 -21 -32 -21 -5 0 -4
-7 3 -15 9 -11 9 -15 1 -15 -7 0 -9 -5 -5 -11 4 -7 9 -8 13 -1 3 5 39 26 79
46 39 20 72 38 72 41 0 7 -3 6 -20 -5z m-80 -26 c0 -9 -32 -33 -44 -34 -5 0
-1 9 9 20 18 20 35 26 35 14z"/>
<path d="M5345 5279 c-4 -6 -5 -12 -2 -15 2 -3 7 2 10 11 7 17 1 20 -8 4z"/>
<path d="M4029 5261 c14 -10 37 -26 53 -35 26 -16 28 -16 28 -1 0 9 -5 13 -11
9 -6 -3 -14 -3 -18 2 -8 12 -58 44 -68 44 -4 0 3 -9 16 -19z"/>
<path d="M5316 5265 c4 -8 8 -15 10 -15 2 0 4 7 4 15 0 8 -4 15 -10 15 -5 0
-7 -7 -4 -15z"/>
<path d="M5446 5265 c-3 -8 -1 -15 3 -15 5 0 11 7 15 15 3 8 1 15 -3 15 -5 0
-11 -7 -15 -15z"/>
<path d="M5547 5263 c4 -10 10 -10 26 -1 31 15 31 15 -1 14 -19 -1 -28 -5 -25
-13z"/>
<path d="M6165 5269 c-4 -6 -5 -12 -2 -15 2 -3 7 2 10 11 7 17 1 20 -8 4z"/>
<path d="M5513 5256 c4 -10 1 -19 -8 -22 -8 -4 -15 -11 -15 -18 0 -6 -12 -22
-25 -35 -14 -13 -25 -31 -24 -40 0 -15 1 -15 7 0 4 9 24 36 45 59 40 46 43 55
25 66 -8 5 -9 2 -5 -10z"/>
<path d="M5972 5256 c7 -8 15 -12 17 -10 2 1 10 -3 18 -11 8 -8 19 -15 24 -15
6 0 -3 11 -19 25 -32 27 -62 35 -40 11z"/>
<path d="M5477 5253 c-4 -3 -7 -11 -7 -17 0 -6 5 -5 12 2 6 6 9 14 7 17 -3 3
-9 2 -12 -2z"/>
<path d="M3366 5228 c-24 -33 -19 -45 5 -14 12 15 19 29 16 32 -3 3 -12 -5
-21 -18z"/>
<path d="M4221 5232 c-17 -31 -13 -40 5 -14 9 13 14 26 11 29 -3 2 -10 -4 -16
-15z"/>
<path d="M5351 5234 c0 -11 3 -14 6 -6 3 7 2 16 -1 19 -3 4 -6 -2 -5 -13z"/>
<path d="M6194 5229 c9 -14 13 -29 9 -32 -3 -4 -1 -7 5 -7 18 0 15 15 -9 41
l-20 24 15 -26z"/>
<path d="M4136 5214 c-5 -14 -4 -15 9 -4 17 14 19 20 6 20 -5 0 -12 -7 -15
-16z"/>
<path d="M6080 5177 c19 -20 39 -37 44 -37 13 0 -13 28 -48 52 -31 21 -31 21
4 -15z"/>
<path d="M4127 5176 c20 -26 27 -28 17 -3 -3 8 -12 18 -20 21 -11 4 -10 0 3
-18z"/>
<path d="M4160 5189 c0 -5 5 -7 10 -4 6 3 10 8 10 11 0 2 -4 4 -10 4 -5 0 -10
-5 -10 -11z"/>
<path d="M3496 5175 c-8 -8 -21 -12 -29 -9 -8 3 -17 -1 -19 -8 -9 -23 36 -17
55 8 20 27 16 32 -7 9z"/>
<path d="M3317 5151 c-19 -33 -22 -51 -7 -51 6 0 10 6 8 13 -1 6 4 23 11 35
19 34 8 37 -12 3z"/>
<path d="M5361 5164 c0 -11 3 -14 6 -6 3 7 2 16 -1 19 -3 4 -6 -2 -5 -13z"/>
<path d="M3861 5156 c15 -8 42 -17 60 -20 l34 -5 -31 14 c-17 8 -44 17 -60 20
l-29 6 26 -15z"/>
<path d="M4184 5150 c3 -14 1 -32 -4 -40 -7 -11 -10 -6 -10 20 -1 27 -3 31
-10 18 -7 -11 -6 -26 3 -47 l13 -31 13 35 c9 26 9 39 1 52 -10 16 -11 15 -6
-7z"/>
<path d="M5765 5161 c6 -6 31 -15 55 -20 25 -5 54 -12 65 -16 l20 -8 -20 16
c-11 9 -32 17 -47 17 -15 0 -39 5 -55 11 -19 7 -25 7 -18 0z"/>
<path d="M6230 5160 c0 -5 5 -10 11 -10 6 0 8 -7 5 -16 -4 -9 -2 -13 5 -8 8 4
9 -1 4 -16 -6 -20 -5 -21 8 -9 13 12 13 18 1 42 -14 26 -34 37 -34 17z"/>
<path d="M3775 5149 c-16 -8 -15 -8 8 -4 28 6 63 -16 49 -30 -4 -4 3 -4 16 -1
13 5 22 3 22 -3 0 -6 18 -10 41 -9 50 2 92 -37 91 -84 -1 -28 0 -29 13 -12 8
11 15 24 15 31 0 20 -40 81 -58 88 -11 4 -9 -2 7 -19 31 -33 18 -33 -21 -1
-24 20 -33 23 -44 14 -11 -9 -21 -9 -42 2 -15 8 -31 20 -35 26 -9 15 -33 16
-62 2z m243 -104 c-3 -3 -9 2 -12 12 -6 14 -5 15 5 6 7 -7 10 -15 7 -18z"/>
<path d="M5648 5136 c-21 -11 -38 -24 -38 -29 0 -4 10 -1 23 7 15 9 28 11 42
5 19 -9 19 -9 -2 -5 -14 2 -29 -4 -40 -17 -10 -12 -11 -17 -3 -10 8 6 28 13
44 15 35 4 48 28 16 28 -13 0 -19 4 -14 11 3 6 23 9 44 7 21 -2 36 0 34 4 -9
15 -69 6 -106 -16z"/>
<path d="M3714 5135 c-12 -9 -14 -14 -6 -15 7 0 20 7 28 15 20 19 4 20 -22 0z"/>
<path d="M3445 5120 c-3 -5 -13 -7 -23 -4 -10 4 -13 2 -7 -3 6 -4 12 -11 16
-15 3 -4 13 1 22 12 9 11 13 20 7 20 -5 0 -11 -4 -15 -10z"/>
<path d="M5835 5119 c-4 -6 -5 -12 -2 -15 2 -3 7 2 10 11 7 17 1 20 -8 4z"/>
<path d="M6148 5107 c12 -13 31 -41 42 -63 10 -21 19 -33 20 -25 0 18 -41 91
-52 91 -5 0 -6 5 -3 10 3 6 -2 10 -11 10 -15 0 -15 -3 4 -23z"/>
<path d="M3647 5102 c-15 -9 -25 -22 -22 -29 2 -7 -2 -13 -10 -13 -7 0 -23
-13 -35 -30 -12 -16 -17 -30 -11 -30 6 0 15 8 20 18 5 10 21 24 34 31 15 8 23
19 20 27 -4 12 6 18 28 16 3 -1 6 6 6 14 0 8 -1 14 -1 14 -1 0 -13 -8 -29 -18z"/>
<path d="M5920 5108 c0 -7 10 -18 23 -23 12 -6 21 -17 19 -24 -1 -7 2 -10 8
-6 17 10 11 23 -20 45 -21 15 -30 17 -30 8z"/>
<path d="M5730 5102 c0 -5 11 -14 24 -22 24 -12 33 -28 46 -85 6 -24 8 -26 9
-7 0 13 7 22 17 22 8 0 12 5 9 10 -4 6 -11 8 -16 5 -5 -4 -13 4 -18 17 -12 31
-71 81 -71 60z"/>
<path d="M3330 5089 c0 -5 5 -7 10 -4 6 3 10 8 10 11 0 2 -4 4 -10 4 -5 0 -10
-5 -10 -11z"/>
<path d="M5420 5083 c0 -14 -2 -15 -9 -4 -7 10 -10 10 -16 1 -4 -7 -2 -15 4
-19 6 -4 9 -15 6 -23 -4 -9 -2 -19 4 -22 5 -4 9 2 9 11 0 10 3 30 7 46 4 15 4
27 1 27 -3 0 -6 -8 -6 -17z"/>
<path d="M6201 5095 c0 -5 6 -21 14 -35 7 -14 12 -38 9 -55 l-4 -30 10 29 c7
22 5 37 -10 65 -11 20 -19 32 -19 26z"/>
<path d="M6230 5095 c0 -5 5 -17 10 -25 5 -8 10 -10 10 -5 0 6 -5 17 -10 25
-5 8 -10 11 -10 5z"/>
<path d="M6271 5084 c-11 -14 -11 -18 2 -32 15 -14 15 -13 10 9 -6 22 -5 23
12 9 17 -14 18 -14 6 8 -14 26 -12 26 -30 6z"/>
<path d="M3252 5033 c-33 -66 -49 -118 -32 -108 5 3 10 14 10 24 0 13 7 18 23
16 22 -3 23 0 21 48 -2 36 1 46 8 36 8 -11 8 -10 4 5 -4 11 -1 23 6 28 10 6
10 8 1 8 -7 0 -26 -26 -41 -57z m7 -45 c-7 -13 -14 -18 -16 -11 -3 7 1 22 8
35 7 13 14 18 16 11 3 -7 -1 -22 -8 -35z"/>
<path d="M3401 5072 c-6 -12 -11 -26 -11 -33 0 -10 -25 -70 -51 -121 -5 -10
-9 -26 -8 -35 0 -19 5 -10 39 72 9 22 25 59 35 83 19 43 15 70 -4 34z"/>
<path d="M3817 5083 c-4 -3 -7 -11 -7 -17 0 -6 5 -5 12 2 6 6 9 14 7 17 -3 3
-9 2 -12 -2z"/>
<path d="M5590 5081 c0 -5 5 -13 10 -16 6 -3 10 -2 10 4 0 5 -4 13 -10 16 -5
3 -10 2 -10 -4z"/>
<path d="M3662 5075 c4 -4 3 -14 -3 -22 -7 -8 -8 -13 -1 -13 15 0 23 28 9 36
-7 4 -9 4 -5 -1z"/>
<path d="M3764 5055 c1 -11 8 -20 16 -20 8 0 18 -4 22 -10 12 -15 10 7 -2 25
-6 10 -10 11 -10 3 0 -19 -18 -15 -23 5 -3 13 -4 12 -3 -3z"/>
<path d="M5572 5040 c0 -14 2 -19 5 -12 2 6 2 18 0 25 -3 6 -5 1 -5 -13z"/>
<path d="M5815 5050 c-3 -5 -1 -10 4 -10 6 0 11 5 11 10 0 6 -2 10 -4 10 -3 0
-8 -4 -11 -10z"/>
<path d="M5588 5025 c-3 -14 -1 -28 3 -31 5 -3 9 9 9 25 0 38 -6 40 -12 6z"/>
<path d="M6000 5033 c0 -5 7 -18 15 -29 12 -16 14 -16 15 -3 0 9 -7 22 -15 29
-8 7 -15 8 -15 3z"/>
<path d="M3785 4981 c-5 -22 0 -39 17 -65 13 -20 26 -36 31 -36 4 0 -4 17 -17
38 -16 26 -22 47 -19 65 7 37 -4 34 -12 -2z"/>
<path d="M3575 4980 c-10 -11 -14 -20 -9 -20 5 0 15 9 22 20 7 11 11 20 9 20
-2 0 -12 -9 -22 -20z"/>
<path d="M3547 4983 c-10 -9 -8 -43 2 -43 5 0 9 11 9 25 0 27 -1 28 -11 18z"/>
<path d="M4794 4962 c2 -18 6 -36 10 -39 10 -10 7 41 -4 57 -7 11 -9 6 -6 -18z"/>
<path d="M6037 4977 c-3 -8 1 -14 8 -14 7 0 11 6 8 14 -3 7 -6 13 -8 13 -2 0
-5 -6 -8 -13z"/>
<path d="M5785 4929 c-4 -17 -4 -33 -1 -36 3 -4 6 2 6 11 0 13 5 16 16 12 12
-5 15 -2 10 10 -3 8 -6 20 -6 25 0 22 -19 6 -25 -22z"/>
<path d="M6260 4950 c0 -5 5 -10 10 -10 6 0 10 5 10 10 0 6 -4 10 -10 10 -5 0
-10 -4 -10 -10z"/>
<path d="M3282 4930 c0 -14 2 -19 5 -12 2 6 2 18 0 25 -3 6 -5 1 -5 -13z"/>
<path d="M3761 4940 c0 -8 4 -24 9 -35 5 -13 9 -14 9 -5 0 8 -4 24 -9 35 -5
13 -9 14 -9 5z"/>
<path d="M6050 4935 c0 -8 5 -15 10 -15 6 0 10 7 10 15 0 8 -4 15 -10 15 -5 0
-10 -7 -10 -15z"/>
<path d="M6230 4946 c0 -4 9 -23 20 -43 11 -21 20 -51 21 -68 1 -16 4 -41 8
-55 l7 -25 6 27 c3 15 2 25 -2 23 -4 -2 -10 19 -13 48 -4 28 -11 53 -17 55 -5
2 -10 10 -10 17 0 8 -4 17 -10 20 -5 3 -10 4 -10 1z"/>
<path d="M4777 4933 c-4 -3 -7 -11 -7 -17 0 -6 5 -5 12 2 6 6 9 14 7 17 -3 3
-9 2 -12 -2z"/>
<path d="M3517 4924 c-4 -4 -7 -19 -6 -33 l0 -26 10 24 c10 26 8 47 -4 35z"/>
<path d="M6000 4920 c0 -5 5 -10 11 -10 5 0 7 5 4 10 -3 6 -8 10 -11 10 -2 0
-4 -4 -4 -10z"/>
<path d="M6365 4909 c4 -13 2 -25 -5 -29 -8 -5 -4 -8 11 -7 24 2 24 3 11 29
-16 33 -26 37 -17 7z"/>
<path d="M6077 4913 c-4 -3 -7 -13 -7 -22 1 -13 3 -13 11 2 11 19 8 33 -4 20z"/>
<path d="M6280 4915 c0 -5 5 -17 10 -25 5 -8 10 -10 10 -5 0 6 -5 17 -10 25
-5 8 -10 11 -10 5z"/>
<path d="M3187 4897 c-3 -8 1 -14 8 -14 7 0 11 6 8 14 -3 7 -6 13 -8 13 -2 0
-5 -6 -8 -13z"/>
<path d="M3225 4890 c-3 -5 -1 -10 4 -10 6 0 11 5 11 10 0 6 -2 10 -4 10 -3 0
-8 -4 -11 -10z"/>
<path d="M4820 4895 c0 -5 5 -17 10 -25 5 -8 10 -10 10 -5 0 6 -5 17 -10 25
-5 8 -10 11 -10 5z"/>
<path d="M5731 4855 c-38 -39 -80 -50 -145 -41 -24 4 -47 3 -50 -2 -3 -5 5 -7
18 -5 13 3 26 1 29 -4 4 -6 30 -7 63 -2 31 4 64 5 73 2 14 -4 14 -3 1 6 -13 9
-12 13 7 26 19 13 51 57 41 54 -2 0 -18 -16 -37 -34z"/>
<path d="M6090 4868 c0 -15 5 -28 12 -30 6 -2 11 -19 10 -36 0 -18 4 -30 9
-27 5 4 9 -9 8 -27 0 -31 -1 -32 -10 -9 -13 33 -17 24 -11 -29 5 -39 6 -42 13
-20 4 14 6 -14 4 -65 -3 -80 -3 -83 5 -30 14 108 11 177 -11 235 -25 66 -29
71 -29 38z"/>
<path d="M3477 4833 c-18 -50 -25 -272 -8 -245 4 7 6 55 4 106 -2 66 1 102 11
127 13 30 15 32 22 15 5 -12 3 -21 -4 -24 -7 -2 -12 -16 -11 -30 0 -15 3 -20
6 -12 2 8 9 25 15 36 7 16 6 29 -4 48 l-14 27 -17 -48z"/>
<path d="M5470 4862 c6 -13 14 -21 18 -18 3 4 -2 14 -12 24 -18 16 -18 16 -6
-6z"/>
<path d="M3840 4864 c1 -25 47 -54 87 -54 22 0 11 10 -17 15 -13 2 -34 14 -47
26 -12 13 -23 18 -23 13z"/>
<path d="M4760 4861 c0 -6 4 -13 10 -16 6 -3 7 1 4 9 -7 18 -14 21 -14 7z"/>
<path d="M3181 4844 c0 -11 3 -14 6 -6 3 7 2 16 -1 19 -3 4 -6 -2 -5 -13z"/>
<path d="M3300 4837 c0 -14 -4 -29 -10 -32 -5 -3 -10 -12 -10 -18 0 -8 4 -7 9
2 7 10 11 2 15 -30 12 -91 14 -91 11 0 -2 51 -6 96 -9 99 -3 3 -6 -6 -6 -21z"/>
<path d="M3321 4844 c0 -11 3 -14 6 -6 3 7 2 16 -1 19 -3 4 -6 -2 -5 -13z"/>
<path d="M4055 4819 c-16 -12 -22 -18 -12 -15 10 3 22 6 27 6 4 0 10 7 14 15
7 19 7 19 -29 -6z"/>
<path d="M4847 4793 c3 -26 13 -55 22 -63 13 -13 14 -13 7 5 -5 11 -13 39 -18
63 -13 56 -19 54 -11 -5z"/>
<path d="M5510 4830 c0 -5 5 -10 11 -10 5 0 7 5 4 10 -3 6 -8 10 -11 10 -2 0
-4 -4 -4 -10z"/>
<path d="M4741 4813 c-1 -12 4 -25 9 -28 12 -7 12 2 0 30 -8 19 -9 19 -9 -2z"/>
<path d="M5480 4821 c0 -6 5 -11 11 -11 5 0 7 -4 4 -10 -3 -6 1 -7 10 -4 9 4
15 7 13 8 -2 1 -11 8 -20 15 -12 9 -18 10 -18 2z"/>
<path d="M6336 4821 c-4 -7 -5 -15 -2 -18 9 -9 19 4 14 18 -4 11 -6 11 -12 0z"/>
<path d="M6410 4808 c0 -20 19 -72 25 -67 2 3 -2 23 -10 44 -8 22 -14 32 -15
23z"/>
<path d="M3151 4798 c0 -9 -4 -25 -7 -35 -5 -14 -4 -15 5 -7 7 7 11 22 8 35
-2 13 -5 16 -6 7z"/>
<path d="M3963 4803 c9 -2 23 -2 30 0 6 3 -1 5 -18 5 -16 0 -22 -2 -12 -5z"/>
<path d="M4821 4794 c0 -11 3 -14 6 -6 3 7 2 16 -1 19 -3 4 -6 -2 -5 -13z"/>
<path d="M4012 4780 c0 -14 2 -19 5 -12 2 6 2 18 0 25 -3 6 -5 1 -5 -13z"/>
<path d="M4040 4755 c0 -8 2 -15 4 -15 2 0 6 7 10 15 3 8 1 15 -4 15 -6 0 -10
-7 -10 -15z"/>
<path d="M4000 4731 c0 -6 4 -13 10 -16 6 -3 7 1 4 9 -7 18 -14 21 -14 7z"/>
<path d="M3130 4721 c0 -5 5 -13 10 -16 6 -3 10 -2 10 4 0 5 -4 13 -10 16 -5
3 -10 2 -10 -4z"/>
<path d="M5520 4724 c0 -13 35 -64 44 -64 5 0 2 8 -8 19 -9 10 -14 25 -10 35
4 11 1 16 -10 16 -9 0 -16 -3 -16 -6z"/>
<path d="M6405 4719 c-4 -6 -5 -12 -2 -15 2 -3 7 2 10 11 7 17 1 20 -8 4z"/>
<path d="M3292 4695 c0 -16 2 -22 5 -12 2 9 2 23 0 30 -3 6 -5 -1 -5 -18z"/>
<path d="M6282 4625 l1 -100 8 83 c6 53 5 90 -1 100 -6 12 -9 -14 -8 -83z"/>
<path d="M4700 4695 c0 -8 4 -15 10 -15 5 0 7 7 4 15 -4 8 -8 15 -10 15 -2 0
-4 -7 -4 -15z"/>
<path d="M4020 4689 c0 -8 -7 -27 -15 -43 -12 -23 -12 -26 -1 -17 15 13 30 60
21 69 -3 3 -5 -1 -5 -9z"/>
<path d="M3118 4657 c-3 -19 -2 -25 4 -19 6 6 8 18 6 28 -3 14 -5 12 -10 -9z"/>
<path d="M4682 4632 c-8 -25 -8 -47 -2 -67 9 -28 9 -27 4 8 -3 22 -2 37 3 34
4 -3 9 10 10 29 2 44 -1 43 -15 -4z"/>
<path d="M3301 4655 c1 -19 18 -51 18 -35 0 8 -4 22 -9 30 -5 8 -9 11 -9 5z"/>
<path d="M4880 4646 c0 -8 -6 -17 -12 -19 -8 -3 -6 -6 5 -6 11 -1 17 6 17 19
0 11 -2 20 -5 20 -3 0 -5 -6 -5 -14z"/>
<path d="M5583 4652 c-9 -6 -7 -11 7 -20 12 -7 20 -8 20 -2 0 5 -5 10 -11 10
-5 0 -7 5 -4 10 7 12 4 12 -12 2z"/>
<path d="M6456 4641 c-3 -5 1 -24 10 -42 10 -22 13 -25 9 -9 -4 14 -7 33 -8
43 -1 19 -3 21 -11 8z"/>
<path d="M5636 4615 c9 -14 19 -24 21 -21 6 6 -20 46 -30 46 -4 0 0 -11 9 -25z"/>
<path d="M4717 4623 c-13 -12 -7 -33 9 -33 8 0 12 -5 9 -10 -4 -6 -11 -8 -16
-5 -5 4 -9 -1 -9 -10 0 -9 -7 -27 -16 -40 -10 -15 -12 -25 -5 -25 6 0 11 4 11
9 0 5 15 26 34 45 18 20 28 36 21 36 -7 0 -18 7 -26 16 -11 14 -8 15 27 10 30
-4 33 -4 14 3 -32 12 -45 13 -53 4z"/>
<path d="M4814 4604 c3 -16 24 -34 41 -34 6 1 2 7 -7 14 -10 7 -18 18 -18 25
0 6 -4 11 -9 11 -5 0 -8 -7 -7 -16z"/>
<path d="M3101 4594 c0 -11 3 -14 6 -6 3 7 2 16 -1 19 -3 4 -6 -2 -5 -13z"/>
<path d="M3929 4603 c-14 -84 -3 -103 27 -46 29 58 30 66 3 34 -11 -13 -22
-21 -26 -18 -3 4 0 13 7 22 8 10 9 15 1 15 -6 0 -12 -3 -12 -7z"/>
<path d="M4855 4600 c3 -5 11 -10 16 -10 6 0 7 5 4 10 -3 6 -11 10 -16 10 -6
0 -7 -4 -4 -10z"/>
<path d="M4902 4590 c0 -14 2 -19 5 -12 2 6 2 18 0 25 -3 6 -5 1 -5 -13z"/>
<path d="M6416 4595 c-3 -9 -6 -22 -5 -28 0 -7 5 -1 10 12 5 13 8 26 5 28 -2
2 -6 -3 -10 -12z"/>
<path d="M3308 4573 l-4 -28 -12 25 c-12 24 -12 24 -8 2 4 -19 1 -22 -17 -16
-20 6 -20 6 -4 -10 9 -10 17 -22 17 -27 0 -5 4 -9 10 -9 5 0 7 7 4 15 -5 11
-2 13 10 9 13 -5 16 1 16 30 0 43 -7 47 -12 9z"/>
<path d="M3475 4562 c-3 -16 -2 -39 3 -53 8 -19 9 -14 9 29 -1 28 -2 52 -3 52
-1 0 -5 -13 -9 -28z"/>
<path d="M5641 4564 c0 -11 3 -14 6 -6 3 7 2 16 -1 19 -3 4 -6 -2 -5 -13z"/>
<path d="M6436 4565 c-3 -8 -1 -15 3 -15 5 0 18 -15 30 -32 l21 -33 0 29 c0
16 -3 27 -6 23 -10 -9 -32 16 -27 30 3 7 1 13 -5 13 -5 0 -12 -7 -16 -15z"/>
<path d="M4867 4563 c-3 -5 -2 -15 2 -22 7 -10 10 -10 16 -1 4 6 3 16 -3 22
-5 5 -12 6 -15 1z"/>
<path d="M3135 4549 c-11 -17 -2 -18 19 -3 17 12 17 14 4 14 -9 0 -20 -5 -23
-11z"/>
<path d="M6305 4550 c3 -5 11 -10 16 -10 6 0 7 5 4 10 -3 6 -11 10 -16 10 -6
0 -7 -4 -4 -10z"/>
<path d="M3091 4534 c0 -11 3 -14 6 -6 3 7 2 16 -1 19 -3 4 -6 -2 -5 -13z"/>
<path d="M3110 4533 c0 -12 -3 -28 -6 -37 -3 -9 -2 -16 4 -16 14 0 23 41 12
59 -8 13 -9 12 -10 -6z"/>
<path d="M4931 4540 c0 -8 4 -24 9 -35 5 -13 9 -14 9 -5 0 8 -4 24 -9 35 -5
13 -9 14 -9 5z"/>
<path d="M6107 4524 c-4 -4 -7 -14 -7 -23 0 -11 3 -12 11 -4 6 6 10 16 7 23
-2 6 -7 8 -11 4z"/>
<path d="M4890 4504 c0 -8 5 -12 10 -9 6 3 10 10 10 16 0 5 -4 9 -10 9 -5 0
-10 -7 -10 -16z"/>
<path d="M4913 4486 c-6 -8 -10 -16 -7 -19 11 -11 44 -151 45 -189 1 -41 1
-42 9 -14 7 22 3 52 -16 116 -13 48 -22 94 -18 103 7 20 3 21 -13 3z"/>
<path d="M6083 4457 c1 -36 2 -36 14 -15 15 27 16 41 4 34 -5 -4 -11 0 -14 6
-2 7 -4 -4 -4 -25z"/>
<path d="M6487 4405 c3 -44 7 -82 9 -84 8 -9 2 125 -6 144 -4 12 -6 -14 -3
-60z"/>
<path d="M3897 4450 c-19 -28 -22 -50 -6 -50 5 0 8 4 4 9 -3 5 2 17 11 25 8 9
14 21 12 28 -3 7 -11 2 -21 -12z"/>
<path d="M4656 4448 c-7 -29 -8 -103 0 -96 3 3 5 24 6 47 0 22 4 39 8 36 5 -3
6 4 3 15 -7 26 -9 25 -17 -2z"/>
<path d="M3512 4440 c0 -14 2 -19 5 -12 2 6 2 18 0 25 -3 6 -5 1 -5 -13z"/>
<path d="M3082 4425 c0 -16 2 -22 5 -12 2 9 2 23 0 30 -3 6 -5 -1 -5 -18z"/>
<path d="M3100 4430 c0 -11 6 -19 13 -17 6 1 11 -5 9 -15 -2 -12 3 -15 18 -11
27 7 26 -11 -2 -26 -23 -11 -23 -11 2 -5 14 4 49 7 77 9 67 2 82 15 20 15 -49
0 -117 33 -117 58 0 6 -4 12 -10 12 -5 0 -10 -9 -10 -20z"/>
<path d="M4612 4413 c-21 -56 -34 -104 -29 -110 3 -3 11 15 17 38 6 24 16 54
22 66 6 13 9 25 6 28 -3 3 -10 -7 -16 -22z"/>
<path d="M6234 4427 c3 -10 6 -26 7 -35 0 -10 3 -12 5 -5 3 7 13 10 22 7 15
-5 15 -4 0 6 -10 6 -22 18 -28 28 -11 16 -11 16 -6 -1z"/>
<path d="M3350 4421 c0 -5 -15 -16 -32 -25 -18 -8 -27 -16 -20 -16 7 0 23 7
37 16 21 14 24 14 35 -3 11 -17 11 -17 6 0 -3 10 -6 23 -6 28 0 5 -4 9 -10 9
-5 0 -10 -4 -10 -9z"/>
<path d="M6471 4414 c0 -11 3 -14 6 -6 3 7 2 16 -1 19 -3 4 -6 -2 -5 -13z"/>
<path d="M6218 4385 c-4 -16 -10 -41 -14 -55 -5 -23 -4 -22 11 5 9 16 15 41
13 55 -3 24 -3 24 -10 -5z"/>
<path d="M6425 4395 c-16 -8 -55 -14 -85 -15 -77 -1 -93 -15 -19 -17 33 -1 70
-5 82 -7 12 -3 16 -3 10 0 -19 9 -15 24 6 24 10 0 24 7 31 15 15 18 14 18 -25
0z"/>
<path d="M3518 4383 c5 -10 11 -25 14 -33 3 -9 7 -5 10 12 3 15 1 25 -3 22 -5
-3 -9 0 -9 5 0 6 -5 11 -10 11 -7 0 -7 -6 -2 -17z"/>
<path d="M3852 4370 c0 -19 2 -27 5 -17 2 9 2 25 0 35 -3 9 -5 1 -5 -18z"/>
<path d="M6046 4392 c-7 -11 4 -52 14 -52 10 0 21 41 14 52 -3 4 -9 8 -14 8
-5 0 -11 -4 -14 -8z m24 -12 c0 -5 -4 -10 -10 -10 -5 0 -10 5 -10 10 0 6 5 10
10 10 6 0 10 -4 10 -10z"/>
<path d="M3895 4370 c-8 -24 -8 -24 -16 -5 -6 14 -7 9 -3 -14 4 -22 3 -31 -4
-27 -6 3 -14 1 -18 -5 -4 -8 -3 -9 4 -5 14 9 15 -13 2 -34 -8 -12 -10 -12 -10
-1 0 8 -2 12 -5 9 -3 -3 -2 -19 1 -37 l7 -33 13 34 c38 101 44 122 41 132 -2
6 -7 0 -12 -14z"/>
<path d="M4981 4380 c0 -8 4 -22 9 -30 12 -18 12 -2 0 25 -6 13 -9 15 -9 5z"/>
<path d="M3561 4353 c0 -18 -6 -33 -12 -33 -8 0 -7 -5 2 -16 11 -14 13 -14 21
1 5 8 12 14 16 11 4 -2 7 7 7 20 0 30 -15 32 -16 2 -1 -15 -4 -11 -9 12 l-7
35 -2 -32z"/>
<path d="M3290 4360 c-13 -9 -13 -10 0 -9 8 0 24 4 35 9 l20 9 -20 0 c-11 0
-27 -4 -35 -9z"/>
<path d="M3379 4358 c-1 -7 -1 -17 0 -22 1 -4 -5 -19 -14 -32 -8 -13 -11 -24
-6 -24 5 0 13 10 16 21 6 17 9 19 17 8 7 -10 8 -9 3 6 -4 11 -7 28 -7 38 1 19
-7 24 -9 5z"/>
<path d="M5702 4350 c0 -14 2 -19 5 -12 2 6 2 18 0 25 -3 6 -5 1 -5 -13z"/>
<path d="M6020 4355 c0 -12 5 -26 12 -33 9 -9 9 -12 0 -12 -6 0 -16 8 -21 18
-6 9 -10 13 -10 7 0 -5 6 -19 15 -30 13 -17 16 -18 24 -5 13 21 12 33 -5 56
-14 19 -14 19 -15 -1z"/>
<path d="M6438 4363 c7 -3 16 -2 19 1 4 3 -2 6 -13 5 -11 0 -14 -3 -6 -6z"/>
<path d="M6304 4348 c-3 -4 13 -8 35 -8 23 0 41 2 41 4 0 8 -71 12 -76 4z"/>
<path d="M3077 4260 c3 -52 7 -97 9 -99 8 -8 3 115 -6 154 -6 28 -7 11 -3 -55z"/>
<path d="M3223 4343 c9 -2 25 -2 35 0 9 3 1 5 -18 5 -19 0 -27 -2 -17 -5z"/>
<path d="M3308 4333 c7 -3 16 -2 19 1 4 3 -2 6 -13 5 -11 0 -14 -3 -6 -6z"/>
<path d="M6428 4333 c7 -3 16 -2 19 1 4 3 -2 6 -13 5 -11 0 -14 -3 -6 -6z"/>
<path d="M3220 4320 c0 -5 5 -10 11 -10 5 0 7 5 4 10 -3 6 -8 10 -11 10 -2 0
-4 -4 -4 -10z"/>
<path d="M5001 4323 c-1 -6 -4 -20 -7 -30 -5 -17 -5 -17 6 0 6 10 9 23 6 30
-3 9 -5 9 -5 0z"/>
<path d="M6245 4316 c11 -7 31 -16 45 -20 19 -5 16 -2 -10 13 -40 23 -65 28
-35 7z"/>
<path d="M3298 4313 c7 -3 16 -2 19 1 4 3 -2 6 -13 5 -11 0 -14 -3 -6 -6z"/>
<path d="M4630 4280 c0 -22 5 -40 10 -40 6 0 10 18 10 40 0 22 -4 40 -10 40
-5 0 -10 -18 -10 -40z"/>
<path d="M3216 4285 c-11 -8 -15 -15 -10 -15 6 0 19 7 30 15 10 8 15 14 9 14
-5 0 -19 -6 -29 -14z"/>
<path d="M3290 4290 c12 -8 12 -10 -5 -10 -38 -1 -68 -24 -71 -55 l-3 -30 13
28 c7 16 19 33 27 38 19 12 66 11 90 -1 32 -18 21 -3 -15 19 -32 20 -66 30
-36 11z"/>
<path d="M3576 4285 c-9 -26 -7 -32 5 -12 6 10 9 21 6 23 -2 3 -7 -2 -11 -11z"/>
<path d="M6191 4294 c-2 -20 27 -66 33 -56 3 6 0 16 -7 24 -8 7 -16 20 -20 28
-3 8 -6 10 -6 4z"/>
<path d="M6240 4292 c0 -14 25 -22 70 -22 51 0 61 -19 69 -122 1 -5 5 -8 10
-8 5 0 7 10 4 23 -23 111 -31 122 -91 118 -18 -2 -40 3 -48 9 -8 8 -14 8 -14
2z"/>
<path d="M3377 4269 c-4 -13 -2 -28 3 -33 14 -14 24 19 12 40 -8 14 -10 13
-15 -7z"/>
<path d="M5008 4265 c-3 -14 -1 -25 3 -25 5 0 9 11 9 25 0 14 -2 25 -4 25 -2
0 -6 -11 -8 -25z"/>
<path d="M5693 4261 c8 -23 13 -28 15 -16 2 10 -3 25 -12 33 -14 15 -15 13 -3
-17z"/>
<path d="M5751 4274 c0 -11 3 -14 6 -6 3 7 2 16 -1 19 -3 4 -6 -2 -5 -13z"/>
<path d="M5990 4281 c0 -11 31 -24 39 -16 3 3 -1 10 -9 15 -19 12 -30 12 -30
1z"/>
<path d="M3591 4248 c-1 -22 11 -29 29 -16 12 8 12 9 -2 4 -10 -3 -18 1 -21
12 -4 16 -5 16 -6 0z"/>
<path d="M5996 4233 c-6 -14 -5 -15 5 -6 7 7 10 15 7 18 -3 3 -9 -2 -12 -12z"/>
<path d="M3101 4224 c0 -11 3 -14 6 -6 3 7 2 16 -1 19 -3 4 -6 -2 -5 -13z"/>
<path d="M6488 4199 c-2 -22 0 -43 4 -45 4 -3 8 15 8 40 0 57 -7 60 -12 5z"/>
<path d="M3650 4215 c7 -9 15 -13 17 -11 7 7 -7 26 -19 26 -6 0 -6 -6 2 -15z"/>
<path d="M5966 4211 c-4 -6 -13 -8 -20 -5 -8 3 -17 1 -20 -4 -10 -17 27 -23
43 -8 8 9 12 18 9 21 -3 4 -9 2 -12 -4z"/>
<path d="M3620 4206 c0 -2 7 -9 15 -16 13 -11 14 -10 9 4 -5 14 -24 23 -24 12z"/>
<path d="M4538 4187 c-3 -19 -2 -25 4 -19 6 6 8 18 6 28 -3 14 -5 12 -10 -9z"/>
<path d="M3210 4159 c12 -41 38 -69 63 -69 16 0 13 5 -14 23 -22 15 -35 32
-37 50 -2 15 -7 27 -12 27 -5 0 -5 -14 0 -31z"/>
<path d="M3461 4146 c-8 -14 -32 -34 -55 -45 -23 -11 -34 -20 -26 -20 8 -1 27
5 42 13 20 10 28 11 31 3 2 -7 3 -4 2 6 -2 9 1 17 6 17 5 0 9 7 9 16 0 8 4 13
10 9 5 -3 6 -13 3 -22 -4 -11 -3 -14 5 -9 15 9 15 18 -1 40 -12 16 -14 16 -26
-8z"/>
<path d="M3661 4164 c6 -17 121 -115 128 -109 3 4 -1 10 -8 14 -11 7 -11 10 0
14 8 3 3 5 -10 4 -13 -1 -26 4 -29 12 -3 9 0 11 8 6 8 -5 11 -3 8 5 -2 8 -10
16 -18 18 -8 3 -10 0 -5 -8 5 -8 3 -11 -6 -8 -8 3 -13 13 -13 22 1 9 -6 16
-15 16 -9 0 -23 6 -30 13 -8 7 -12 8 -10 1z"/>
<path d="M5053 4122 l-2 -47 11 38 c6 22 7 42 2 47 -5 5 -10 -11 -11 -38z"/>
<path d="M5920 4161 c-8 -4 -28 -15 -45 -24 -16 -8 -31 -21 -33 -29 -3 -10 -1
-10 5 -1 5 7 25 19 45 27 20 9 39 20 43 26 7 12 5 12 -15 1z"/>
<path d="M6110 4161 c0 -5 -22 -33 -50 -61 -49 -50 -62 -69 -38 -54 8 5 9 0 6
-14 -4 -12 -2 -22 3 -22 5 0 9 13 9 28 0 19 10 38 30 55 17 15 30 32 30 38 0
7 9 9 21 6 15 -4 18 -2 10 7 -6 7 -8 16 -4 19 3 4 1 7 -5 7 -7 0 -12 -4 -12
-9z"/>
<path d="M3755 4150 c-3 -5 -1 -10 4 -10 6 0 11 5 11 10 0 6 -2 10 -4 10 -3 0
-8 -4 -11 -10z"/>
<path d="M3815 4149 c-4 -6 -5 -12 -2 -15 2 -3 7 2 10 11 7 17 1 20 -8 4z"/>
<path d="M4551 4144 c0 -11 3 -14 6 -6 3 7 2 16 -1 19 -3 4 -6 -2 -5 -13z"/>
<path d="M4520 4125 c0 -8 5 -15 10 -15 6 0 10 7 10 15 0 8 -4 15 -10 15 -5 0
-10 -7 -10 -15z"/>
<path d="M3092 4110 c0 -14 4 -36 8 -50 6 -20 8 -21 8 -5 0 11 -4 34 -8 50 -7
27 -8 27 -8 5z"/>
<path d="M3775 4120 c-3 -5 -1 -10 4 -10 6 0 11 5 11 10 0 6 -2 10 -4 10 -3 0
-8 -4 -11 -10z"/>
<path d="M6331 4110 c-18 -16 -20 -20 -7 -20 9 0 19 7 23 16 4 11 13 14 32 9
19 -4 22 -3 11 5 -21 14 -32 12 -59 -10z"/>
<path d="M3510 4112 c0 -7 7 -15 15 -18 8 -4 15 -12 15 -19 0 -11 29 -30 36
-23 1 2 -13 19 -32 38 -19 19 -34 28 -34 22z"/>
<path d="M6125 4110 c3 -5 8 -10 11 -10 2 0 4 5 4 10 0 6 -5 10 -11 10 -5 0
-7 -4 -4 -10z"/>
<path d="M6150 4110 c0 -5 5 -10 11 -10 5 0 7 5 4 10 -3 6 -8 10 -11 10 -2 0
-4 -4 -4 -10z"/>
<path d="M6473 4069 c-7 -29 -11 -54 -9 -57 7 -6 28 77 24 95 -2 8 -9 -9 -15
-38z"/>
<path d="M4640 4052 l0 -61 -82 -4 -83 -3 92 -2 91 -2 -5 63 c-7 81 -13 86
-13 9z"/>
<path d="M4511 4084 c0 -11 3 -14 6 -6 3 7 2 16 -1 19 -3 4 -6 -2 -5 -13z"/>
<path d="M6195 4090 c19 -8 113 -14 104 -6 -2 2 -31 6 -64 9 -36 3 -52 2 -40
-3z"/>
<path d="M3318 4083 c6 -2 18 -2 25 0 6 3 1 5 -13 5 -14 0 -19 -2 -12 -5z"/>
<path d="M4942 4060 c0 -19 2 -27 5 -17 2 9 2 25 0 35 -3 9 -5 1 -5 -18z"/>
<path d="M5086 4045 c6 -41 11 -52 19 -44 2 3 -3 23 -11 44 l-15 40 7 -40z"/>
<path d="M5769 4060 c5 -8 10 -22 13 -30 3 -8 7 -1 10 17 3 25 1 31 -13 30
-12 -1 -15 -6 -10 -17z"/>
<path d="M5810 4065 c-7 -8 -8 -15 -2 -15 5 0 15 7 22 15 7 8 8 15 2 15 -5 0
-15 -7 -22 -15z"/>
<path d="M4552 4050 c0 -14 2 -19 5 -12 2 6 2 18 0 25 -3 6 -5 1 -5 -13z"/>
<path d="M4497 4046 c-4 -10 -5 -21 -2 -24 9 -9 17 6 13 25 -3 17 -4 17 -11
-1z"/>
<path d="M4521 4044 c0 -11 3 -14 6 -6 3 7 2 16 -1 19 -3 4 -6 -2 -5 -13z"/>
<path d="M5050 4044 c0 -8 5 -12 10 -9 6 3 10 10 10 16 0 5 -4 9 -10 9 -5 0
-10 -7 -10 -16z"/>
<path d="M3528 4033 c14 -5 17 -34 3 -30 -5 1 -9 -2 -9 -8 1 -19 10 -35 20
-35 6 0 6 6 -1 14 -7 9 -8 17 -2 20 5 3 12 0 14 -6 7 -16 27 10 26 32 -1 11
-3 10 -6 -2 -2 -10 -9 -18 -14 -18 -6 0 -8 8 -5 18 5 13 0 18 -17 19 -12 0
-16 -1 -9 -4z"/>
<path d="M6071 4024 c0 -11 3 -14 6 -6 3 7 2 16 -1 19 -3 4 -6 -2 -5 -13z"/>
<path d="M3455 4010 c-17 -7 -15 -9 13 -9 17 -1 32 4 32 9 0 12 -17 12 -45 0z"/>
<path d="M4940 4000 c0 -19 6 -20 93 -18 l92 2 -87 3 c-71 3 -86 6 -81 18 3 8
0 15 -6 15 -6 0 -11 -9 -11 -20z"/>
<path d="M6086 4004 c-5 -13 -9 -14 -21 -4 -13 11 -14 10 -9 -6 6 -16 5 -17
-7 -6 -21 20 -34 14 -15 -7 18 -20 18 -20 39 0 11 10 27 19 34 19 7 0 13 5 13
10 0 16 -27 11 -34 -6z"/>
<path d="M6145 4010 c-3 -5 -1 -10 4 -10 6 0 11 5 11 10 0 6 -2 10 -4 10 -3 0
-8 -4 -11 -10z"/>
<path d="M3118 3988 c-2 -7 -1 -26 3 -43 6 -28 7 -26 8 13 1 42 -3 53 -11 30z"/>
<path d="M3367 3983 c6 -16 13 -16 35 1 16 12 15 13 -11 12 -18 -1 -27 -5 -24
-13z"/>
<path d="M6205 3983 c3 -10 9 -30 12 -46 8 -41 18 -40 19 3 0 23 -4 38 -10 37
-6 -1 -10 4 -8 11 1 6 -3 12 -9 12 -7 0 -8 -7 -4 -17z"/>
<path d="M6456 3985 c-3 -9 -6 -24 -5 -33 0 -9 5 -4 10 12 9 32 6 48 -5 21z"/>
<path d="M3660 3951 c-6 -16 -30 -48 -52 -70 l-41 -40 29 3 c16 2 32 4 37 5 4
0 7 6 7 13 0 9 -3 9 -12 0 -25 -25 -31 -11 -6 16 14 15 33 41 41 57 10 18 16
23 17 14 0 -9 6 -22 14 -28 11 -9 15 -8 20 5 4 9 5 17 4 18 -2 1 -13 9 -24 19
-21 17 -22 17 -34 -12z m45 -11 c3 -5 1 -10 -4 -10 -6 0 -11 5 -11 10 0 6 2
10 4 10 3 0 8 -4 11 -10z"/>
<path d="M5894 3957 c-12 -12 -25 -33 -29 -47 -6 -22 -4 -21 13 6 24 37 49 57
39 31 -3 -9 -3 -16 1 -14 4 1 24 -16 44 -38 21 -22 38 -34 38 -27 0 6 -5 12
-10 12 -6 0 -25 23 -42 50 -17 28 -31 50 -32 49 -1 0 -11 -10 -22 -22z"/>
<path d="M3364 3900 c-1 -62 1 -67 26 -49 13 9 13 10 -2 6 -14 -5 -16 1 -11
49 3 30 2 54 -3 54 -6 0 -10 -27 -10 -60z"/>
<path d="M3720 3900 c-7 -17 -10 -33 -8 -36 3 -3 11 9 17 27 6 18 9 34 7 36
-2 2 -9 -10 -16 -27z"/>
<path d="M3138 3908 c-3 -7 3 -38 13 -68 10 -30 15 -39 11 -20 -3 19 -7 50 -7
68 0 32 -9 43 -17 20z"/>
<path d="M6438 3897 c-3 -19 -2 -25 4 -19 6 6 8 18 6 28 -3 14 -5 12 -10 -9z"/>
<path d="M5920 3901 c0 -6 4 -13 10 -16 6 -3 7 1 4 9 -7 18 -14 21 -14 7z"/>
<path d="M5831 3884 c0 -11 3 -14 6 -6 3 7 2 16 -1 19 -3 4 -6 -2 -5 -13z"/>
<path d="M3171 3874 c0 -11 3 -14 6 -6 3 7 2 16 -1 19 -3 4 -6 -2 -5 -13z"/>
<path d="M6209 3868 c-11 -20 -10 -21 3 -11 8 7 18 10 22 6 4 -4 4 0 0 10 -8
22 -11 22 -25 -5z"/>
<path d="M6411 3874 c0 -11 3 -14 6 -6 3 7 2 16 -1 19 -3 4 -6 -2 -5 -13z"/>
<path d="M5842 3855 c2 -5 10 -25 17 -42 7 -18 18 -33 24 -33 7 0 7 4 -1 12
-7 7 -12 20 -12 29 0 9 -7 23 -17 30 -9 8 -14 10 -11 4z"/>
<path d="M6425 3846 c-3 -9 -7 -23 -10 -31 -2 -8 -2 -15 1 -15 7 0 25 52 20
58 -3 3 -8 -3 -11 -12z"/>
<path d="M5912 3829 c-23 -18 -22 -39 1 -39 8 0 8 3 -2 9 -10 7 -8 12 10 24
12 9 21 19 18 21 -2 2 -14 -4 -27 -15z"/>
<path d="M6014 3835 c21 -16 141 -21 149 -7 3 4 -22 5 -55 4 -35 -2 -65 1 -71
7 -6 6 -18 11 -26 11 -13 -1 -12 -4 3 -15z"/>
<path d="M3434 3832 c4 -7 26 -13 49 -14 l42 -1 -40 -7 c-40 -8 -40 -8 8 -5
72 3 81 22 12 24 -31 0 -62 4 -67 8 -7 3 -8 1 -4 -5z"/>
<path d="M3691 3824 c0 -11 3 -14 6 -6 3 7 2 16 -1 19 -3 4 -6 -2 -5 -13z"/>
<path d="M3595 3820 c-3 -5 -1 -10 4 -10 6 0 11 5 11 10 0 6 -2 10 -4 10 -3 0
-8 -4 -11 -10z"/>
<path d="M3648 3823 c7 -3 16 -2 19 1 4 3 -2 6 -13 5 -11 0 -14 -3 -6 -6z"/>
<path d="M3658 3803 c-10 -3 -18 -9 -18 -14 0 -10 7 -11 34 0 23 9 9 19 -16
14z"/>
<path d="M6123 3803 c9 -2 23 -2 30 0 6 3 -1 5 -18 5 -16 0 -22 -2 -12 -5z"/>
<path d="M3558 3793 c7 -3 16 -2 19 1 4 3 -2 6 -13 5 -11 0 -14 -3 -6 -6z"/>
<path d="M6065 3790 c11 -5 27 -9 35 -9 9 0 8 4 -5 9 -11 5 -27 9 -35 9 -9 0
-8 -4 5 -9z"/>
<path d="M3508 3783 c7 -3 16 -2 19 1 4 3 -2 6 -13 5 -11 0 -14 -3 -6 -6z"/>
<path d="M5955 3780 c3 -5 11 -10 16 -10 6 0 7 5 4 10 -3 6 -11 10 -16 10 -6
0 -7 -4 -4 -10z"/>
<path d="M6008 3783 c6 -2 18 -2 25 0 6 3 1 5 -13 5 -14 0 -19 -2 -12 -5z"/>
<path d="M3170 3774 c0 -19 29 -80 30 -63 0 9 -7 30 -15 45 -8 16 -15 24 -15
18z"/>
<path d="M6388 3745 c-9 -20 -13 -37 -9 -40 8 -4 36 64 29 70 -2 3 -11 -11
-20 -30z"/>
<path d="M3448 3763 c6 -2 18 -2 25 0 6 3 1 5 -13 5 -14 0 -19 -2 -12 -5z"/>
<path d="M3610 3755 c-7 -9 -10 -18 -7 -21 3 -3 10 4 17 15 13 25 8 27 -10 6z"/>
<path d="M5991 3761 c-7 -5 -12 -14 -10 -20 2 -6 10 -2 17 9 14 22 13 23 -7
11z"/>
<path d="M6088 3763 c6 -2 18 -2 25 0 6 3 1 5 -13 5 -14 0 -19 -2 -12 -5z"/>
<path d="M6341 3730 c0 -8 6 -30 13 -49 10 -27 14 -31 19 -18 3 9 2 17 -3 17
-6 0 -10 8 -10 18 0 9 -5 24 -10 32 -9 13 -10 13 -9 0z"/>
<path d="M3596 3702 c-2 -4 -1 -14 5 -22 7 -12 9 -10 9 8 0 23 -5 28 -14 14z"/>
<path d="M5990 3679 c0 -6 -14 -24 -31 -40 -17 -16 -27 -29 -21 -29 5 0 15 7
22 15 7 9 18 14 24 12 6 -3 12 8 13 24 1 16 0 29 -2 29 -3 0 -5 -5 -5 -11z"/>
<path d="M3615 3641 c5 -15 4 -21 -3 -17 -7 4 -10 -5 -10 -23 1 -17 -5 -37
-12 -46 -8 -9 -8 -15 -2 -15 9 0 19 20 27 54 1 6 6 19 10 29 5 11 3 23 -5 30
-10 10 -11 7 -5 -12z"/>
<path d="M6321 3634 c0 -11 3 -14 6 -6 3 7 2 16 -1 19 -3 4 -6 -2 -5 -13z"/>
<path d="M3230 3613 c0 -4 5 -15 10 -23 8 -13 10 -13 10 2 0 9 -4 20 -10 23
-5 3 -10 3 -10 -2z"/>
<path d="M3257 3573 c-4 -3 -7 -11 -7 -17 0 -6 5 -5 12 2 6 6 9 14 7 17 -3 3
-9 2 -12 -2z"/>
<path d="M3540 3570 c0 -5 5 -10 10 -10 6 0 10 5 10 10 0 6 -4 10 -10 10 -5 0
-10 -4 -10 -10z"/>
<path d="M5972 3560 c0 -14 2 -19 5 -12 2 6 2 18 0 25 -3 6 -5 1 -5 -13z"/>
<path d="M5978 3512 c7 -5 10 -16 6 -28 -6 -15 -4 -17 6 -7 15 14 7 43 -12 43
-11 0 -11 -2 0 -8z"/>
<path d="M6271 3475 c-12 -25 -27 -43 -32 -40 -5 4 -6 -1 -2 -10 5 -13 8 -14
15 -3 19 29 49 90 45 94 -2 2 -14 -16 -26 -41z"/>
<path d="M3280 3506 c0 -9 60 -102 60 -93 0 12 -31 69 -46 85 -8 7 -14 11 -14
8z"/>
<path d="M3551 3474 c0 -11 3 -14 6 -6 3 7 2 16 -1 19 -3 4 -6 -2 -5 -13z"/>
<path d="M3540 3426 c0 -31 6 -34 13 -6 3 11 1 23 -4 26 -5 3 -9 -6 -9 -20z"/>
<path d="M6012 3420 c14 -43 18 -49 18 -24 0 11 -7 29 -15 40 -13 17 -14 16
-3 -16z"/>
<path d="M6201 3424 c0 -11 3 -14 6 -6 3 7 2 16 -1 19 -3 4 -6 -2 -5 -13z"/>
<path d="M3346 3385 c4 -8 8 -15 10 -15 2 0 4 7 4 15 0 8 -4 15 -10 15 -5 0
-7 -7 -4 -15z"/>
<path d="M6212 3370 c-6 -16 -25 -43 -42 -60 -24 -24 -29 -34 -21 -48 9 -14
14 -8 10 14 -1 3 10 18 24 32 28 31 60 92 47 92 -4 0 -13 -13 -18 -30z"/>
<path d="M4390 3359 c0 -5 5 -7 12 -3 7 5 8 3 3 -5 -4 -8 2 -19 16 -29 30 -22
59 -33 59 -24 0 4 -14 13 -31 19 -18 7 -29 18 -27 25 4 10 50 14 189 18 l184
6 -202 2 c-138 1 -203 -1 -203 -9z"/>
<path d="M4801 3365 c3 -2 91 -5 197 -5 137 -1 192 -5 196 -13 2 -7 5 -4 5 6
1 16 -15 17 -201 17 -111 0 -199 -2 -197 -5z"/>
<path d="M6180 3355 c-7 -9 -11 -17 -9 -20 3 -2 10 5 17 15 14 24 10 26 -8 5z"/>
<path d="M3502 3335 c0 -16 2 -22 5 -12 2 9 2 23 0 30 -3 6 -5 -1 -5 -18z"/>
<path d="M4450 3346 c0 -2 8 -10 18 -17 15 -13 16 -12 3 4 -13 16 -21 21 -21
13z"/>
<path d="M3387 3323 c3 -7 9 -10 14 -7 14 8 11 21 -5 21 -8 0 -12 -6 -9 -14z"/>
<path d="M5154 3331 c18 -7 18 -8 2 -14 -26 -10 -38 -8 -30 5 4 7 3 8 -4 4 -6
-4 -9 -13 -6 -21 5 -13 10 -13 35 1 35 17 38 34 7 33 -21 0 -21 -1 -4 -8z"/>
<path d="M6064 3286 c3 -27 7 -51 10 -54 4 -3 4 16 2 42 -3 27 -7 51 -10 54
-4 3 -4 -16 -2 -42z"/>
<path d="M3410 3291 c0 -10 7 -24 15 -31 13 -11 14 -10 9 5 -5 13 -4 16 4 11
7 -4 12 -2 12 4 0 7 -7 9 -16 6 -12 -4 -15 -2 -10 9 3 8 1 15 -4 15 -6 0 -10
-8 -10 -19z"/>
<path d="M3470 3295 c0 -5 5 -17 10 -25 5 -8 10 -10 10 -5 0 6 -5 17 -10 25
-5 8 -10 11 -10 5z"/>
<path d="M4520 3290 c0 -5 5 -10 11 -10 5 0 7 5 4 10 -3 6 -8 10 -11 10 -2 0
-4 -4 -4 -10z"/>
<path d="M5065 3290 c-3 -5 1 -10 10 -10 9 0 13 5 10 10 -3 6 -8 10 -10 10 -2
0 -7 -4 -10 -10z"/>
<path d="M4570 3270 c25 -8 87 -13 79 -6 -2 2 -26 6 -54 9 -34 4 -42 3 -25 -3z"/>
<path d="M4995 3270 c-3 -5 -2 -10 4 -10 5 0 13 5 16 10 3 6 2 10 -4 10 -5 0
-13 -4 -16 -10z"/>
<path d="M6095 3269 c-11 -16 -1 -19 13 -3 7 8 8 14 3 14 -5 0 -13 -5 -16 -11z"/>
<path d="M4850 3260 l-75 -6 82 -2 c46 -1 85 2 88 8 3 6 0 9 -7 8 -7 -1 -47
-4 -88 -8z"/>
<path d="M3463 3227 c-1 -30 -1 -31 9 -9 7 14 8 26 2 32 -5 5 -10 -4 -11 -23z"/>
<path d="M4703 3253 c15 -2 37 -2 50 0 12 2 0 4 -28 4 -27 0 -38 -2 -22 -4z"/>
<path d="M6123 3245 c-8 -9 -9 -16 -3 -20 6 -3 13 1 16 10 9 21 2 26 -13 10z"/>
<path d="M5328 3212 c-16 -9 -28 -20 -28 -24 0 -5 -9 -8 -19 -8 -11 0 -23 -5
-27 -11 -4 -6 1 -9 12 -8 11 2 25 -1 33 -5 11 -7 13 -5 8 6 -6 17 10 38 30 38
7 0 19 -12 27 -27 18 -33 19 -21 3 24 -12 32 -12 32 -39 15z"/>
<path d="M4240 3203 c0 -4 14 -16 31 -25 17 -10 28 -22 25 -26 -7 -12 40 -33
59 -26 11 4 -1 16 -37 38 -29 17 -59 35 -65 39 -7 5 -13 5 -13 0z m100 -63 c8
-5 11 -10 5 -10 -5 0 -17 5 -25 10 -8 5 -10 10 -5 10 6 0 17 -5 25 -10z"/>
<path d="M6099 3193 c-13 -16 -12 -17 4 -4 9 7 17 15 17 17 0 8 -8 3 -21 -13z"/>
<path d="M5325 3180 c-3 -5 -1 -10 4 -10 6 0 11 5 11 10 0 6 -2 10 -4 10 -3 0
-8 -4 -11 -10z"/>
<path d="M4230 3161 c-12 -24 -13 -34 -1 -27 5 4 11 0 14 -6 2 -7 4 2 3 19 -1
38 -2 39 -16 14z"/>
<path d="M5160 3131 c-45 -18 -58 -27 -43 -29 12 -2 33 4 47 13 14 9 31 13 37
9 8 -5 9 -3 4 6 -6 10 -4 12 8 7 39 -16 50 -17 28 -4 -18 11 -20 16 -10 20 8
3 10 5 4 5 -5 0 -39 -12 -75 -27z"/>
<path d="M5267 3139 c7 -7 15 -10 18 -7 3 3 -2 9 -12 12 -14 6 -15 5 -6 -5z"/>
<path d="M5381 3130 c0 -8 4 -22 9 -30 12 -18 12 -2 0 25 -6 13 -9 15 -9 5z"/>
<path d="M4380 3126 c0 -2 7 -7 16 -10 8 -3 12 -2 9 4 -6 10 -25 14 -25 6z"/>
<path d="M4213 3109 c-9 -9 -8 -17 3 -34 8 -12 17 -33 19 -45 6 -31 7 -31 35
-9 l25 19 -29 -10 c-26 -9 -27 -9 -16 5 7 8 8 15 3 15 -5 0 -15 11 -21 25 -15
32 -15 38 0 29 7 -4 8 -3 4 4 -9 15 -9 15 -23 1z"/>
<path d="M4420 3099 c0 -8 109 -23 116 -16 3 2 -23 9 -56 14 -33 5 -60 6 -60
2z"/>
<path d="M5005 3090 c-16 -4 -70 -9 -120 -10 -77 -2 -84 -4 -45 -10 44 -7 150
2 220 19 34 9 34 9 5 9 -16 0 -43 -4 -60 -8z"/>
<path d="M5366 3074 c-3 -9 -6 -25 -6 -36 0 -12 -5 -18 -12 -15 -39 16 -49 16
-23 1 17 -10 33 -17 38 -16 4 1 7 -5 7 -13 0 -8 7 -15 16 -15 14 0 13 2 -1 17
-12 12 -16 27 -12 55 5 40 3 48 -7 22z"/>
<path d="M4595 3069 c55 -11 77 -11 70 1 -3 6 -30 9 -58 9 l-52 -1 40 -9z"/>
<path d="M5030 3070 c-8 -5 -10 -10 -5 -10 6 0 17 5 25 10 8 5 11 10 5 10 -5
0 -17 -5 -25 -10z"/>
<path d="M5078 3063 c7 -3 16 -2 19 1 4 3 -2 6 -13 5 -11 0 -14 -3 -6 -6z"/>
<path d="M4990 3050 c8 -5 22 -9 30 -9 10 0 8 3 -5 9 -27 12 -43 12 -25 0z"/>
<path d="M4304 3033 c3 -4 17 -8 29 -10 17 -2 19 -1 7 7 -17 11 -47 14 -36 3z"/>
<path d="M5240 3020 c-8 -5 -12 -11 -10 -14 3 -2 14 2 24 10 22 15 10 19 -14
4z"/>
<path d="M4360 3014 c0 -5 7 -18 15 -28 8 -11 15 -16 15 -10 0 5 -7 18 -15 28
-8 11 -15 16 -15 10z"/>
<path d="M4206 2990 c-18 -18 -18 -19 3 -13 12 3 21 12 21 19 0 17 -1 17 -24
-6z"/>
<path d="M5205 2990 c3 -5 8 -10 11 -10 2 0 4 5 4 10 0 6 -5 10 -11 10 -5 0
-7 -4 -4 -10z"/>
<path d="M4150 2944 c-7 -19 -9 -38 -6 -41 3 -4 6 0 6 8 0 12 2 12 9 0 7 -10
9 -8 8 10 0 13 3 32 7 42 5 10 4 17 -2 17 -6 0 -16 -16 -22 -36z"/>
<path d="M5406 2965 c-4 -13 -2 -14 14 -5 16 9 20 8 20 -7 0 -10 7 -27 15 -37
19 -25 19 -18 0 28 -16 37 -39 47 -49 21z"/>
<path d="M4210 2939 c0 -19 4 -41 9 -48 6 -10 8 1 4 30 -7 55 -13 63 -13 18z"/>
<path d="M5202 2958 c-1 -10 -9 -18 -17 -18 -8 0 -15 -4 -15 -10 0 -5 7 -10
15 -10 8 0 15 -6 15 -14 0 -7 7 -19 15 -26 10 -9 15 -9 15 -1 0 6 -4 11 -9 11
-6 0 -12 19 -14 43 -2 23 -4 34 -5 25z"/>
<path d="M5383 2930 c0 -25 2 -35 4 -22 2 12 2 32 0 45 -2 12 -4 2 -4 -23z"/>
<path d="M4392 2940 c0 -14 2 -19 5 -12 2 6 2 18 0 25 -3 6 -5 1 -5 -13z"/>
<path d="M4375 2887 c-14 -36 -105 -46 -128 -14 -6 8 -7 7 -4 -3 2 -8 21 -20
43 -27 23 -7 31 -12 19 -13 -14 -1 -16 -3 -6 -7 8 -3 19 1 25 9 6 8 21 18 33
22 21 7 38 34 28 44 -2 3 -7 -2 -10 -11z"/>
<path d="M5437 2883 c8 -3 11 -15 8 -31 -5 -26 -5 -26 5 -4 11 26 6 42 -13 41
-9 0 -9 -2 0 -6z"/>
<path d="M5348 2868 c-3 -8 -22 -13 -56 -13 -28 0 -57 -6 -63 -12 -10 -10 -10
-13 -1 -13 7 0 12 4 12 9 0 4 22 6 48 3 36 -3 51 0 61 12 8 9 11 19 8 22 -2 3
-7 -1 -9 -8z"/>
<path d="M5467 2864 c-4 -4 -7 -14 -7 -23 0 -11 3 -12 11 -4 6 6 10 16 7 23
-2 6 -7 8 -11 4z"/>
<path d="M4368 2833 c7 -3 16 -2 19 1 4 3 -2 6 -13 5 -11 0 -14 -3 -6 -6z"/>
<path d="M5245 2820 c-3 -5 1 -10 10 -10 9 0 13 5 10 10 -3 6 -8 10 -10 10 -2
0 -7 -4 -10 -10z"/>
<path d="M5293 2823 c9 -2 23 -2 30 0 6 3 -1 5 -18 5 -16 0 -22 -2 -12 -5z"/>
<path d="M5486 2821 c-4 -7 -5 -15 -2 -18 9 -9 19 4 14 18 -4 11 -6 11 -12 0z"/>
<path d="M4131 2813 c-1 -17 16 -25 25 -12 4 7 3 9 -4 5 -5 -3 -13 0 -15 6 -4
9 -6 10 -6 1z"/>
<path d="M4092 2777 c-15 -41 -15 -57 -1 -57 5 0 8 4 5 9 -3 5 -1 23 5 40 6
18 9 34 7 36 -2 3 -10 -10 -16 -28z"/>
<path d="M4118 2750 c-3 -16 -1 -30 4 -30 4 0 8 14 8 30 0 17 -2 30 -4 30 -2
0 -6 -13 -8 -30z"/>
<path d="M5475 2770 c-3 -5 -1 -10 4 -10 6 0 11 5 11 10 0 6 -2 10 -4 10 -3 0
-8 -4 -11 -10z"/>
<path d="M5490 2730 c0 -5 5 -10 11 -10 5 0 7 5 4 10 -3 6 -8 10 -11 10 -2 0
-4 -4 -4 -10z"/>
<path d="M5520 2700 c0 -5 5 -10 10 -10 6 0 10 5 10 10 0 6 -4 10 -10 10 -5 0
-10 -4 -10 -10z"/>
<path d="M4050 2663 c-8 -27 -8 -45 -1 -63 10 -23 11 -22 5 10 -3 23 -2 30 4
22 7 -11 10 -11 15 3 4 10 3 14 -4 9 -8 -4 -9 3 -4 25 9 44 -2 39 -15 -6z"/>
<path d="M5560 2605 c0 -8 4 -15 10 -15 5 0 7 7 4 15 -4 8 -8 15 -10 15 -2 0
-4 -7 -4 -15z"/>
<path d="M4071 2594 c0 -11 3 -14 6 -6 3 7 2 16 -1 19 -3 4 -6 -2 -5 -13z"/>
<path d="M4010 2564 c0 -1 6 -7 14 -13 10 -9 15 -8 19 2 3 8 -3 13 -14 13 -11
0 -19 -1 -19 -2z"/>
<path d="M5590 2535 c0 -5 5 -17 10 -25 5 -8 10 -10 10 -5 0 6 -5 17 -10 25
-5 8 -10 11 -10 5z"/>
<path d="M3993 2504 c-6 -13 -7 -24 -3 -24 9 0 25 39 18 45 -2 2 -8 -7 -15
-21z"/>
<path d="M5555 2510 c-3 -5 -1 -10 4 -10 6 0 11 5 11 10 0 6 -2 10 -4 10 -3 0
-8 -4 -11 -10z"/>
<path d="M5610 2474 c0 -11 7 -29 15 -40 13 -17 14 -16 3 16 -14 43 -18 49
-18 24z"/>
<path d="M3956 2396 c-7 -27 11 -76 27 -76 5 0 2 11 -7 25 -10 16 -14 34 -10
50 3 14 4 25 1 25 -3 0 -8 -11 -11 -24z"/>
<path d="M3983 2394 c0 -17 2 -22 7 -13 5 6 6 18 3 26 -8 19 -10 16 -10 -13z"/>
<path d="M5616 2397 c3 -10 9 -15 12 -12 3 3 0 11 -7 18 -10 9 -11 8 -5 -6z"/>
<path d="M5656 2361 c4 -15 1 -27 -7 -32 -11 -7 -11 -9 -1 -9 18 0 25 26 12
47 -9 16 -10 15 -4 -6z"/>
<path d="M3940 2330 c0 -5 5 -10 11 -10 5 0 7 5 4 10 -3 6 -8 10 -11 10 -2 0
-4 -4 -4 -10z"/>
<path d="M5681 2255 c0 -5 8 -21 18 -34 l19 -25 -5 27 c-3 15 -9 25 -13 22 -5
-3 -11 1 -13 7 -3 7 -6 9 -6 3z"/>
<path d="M3886 2204 c-4 -9 -4 -19 -1 -22 3 -3 5 1 5 9 0 11 2 11 10 -1 8 -12
10 -11 10 8 0 26 -15 29 -24 6z"/>
<path d="M5680 2215 c0 -5 5 -17 10 -25 5 -8 10 -10 10 -5 0 6 -5 17 -10 25
-5 8 -10 11 -10 5z"/>
<path d="M3871 2154 c0 -11 3 -14 6 -6 3 7 2 16 -1 19 -3 4 -6 -2 -5 -13z"/>
<path d="M5707 2163 c-4 -3 -7 -11 -7 -17 0 -6 5 -5 12 2 6 6 9 14 7 17 -3 3
-9 2 -12 -2z"/>
<path d="M5550 2060 c0 -5 7 -10 16 -10 8 0 12 5 9 10 -3 6 -10 10 -16 10 -5
0 -9 -4 -9 -10z"/>
<path d="M5595 2060 c-3 -5 -2 -10 4 -10 5 0 13 5 16 10 3 6 2 10 -4 10 -5 0
-13 -4 -16 -10z"/>
<path d="M5435 2000 c-3 -6 1 -7 9 -4 18 7 21 14 7 14 -6 0 -13 -4 -16 -10z"/>
<path d="M4268 1993 c7 -3 16 -2 19 1 4 3 -2 6 -13 5 -11 0 -14 -3 -6 -6z"/>
<path d="M1940 6753 c-81 -81 -84 -85 -65 -99 11 -8 24 -13 30 -10 5 2 17 7
26 11 25 10 136 -214 120 -242 -7 -14 -7 -23 1 -31 17 -17 18 -17 76 37 38 35
50 53 46 66 -5 11 -15 15 -30 12 -15 -3 -30 3 -41 16 -17 19 -17 20 16 48 27
22 38 26 53 18 13 -7 16 -17 12 -33 -3 -14 1 -27 10 -36 14 -11 27 -1 98 68
69 68 79 83 69 96 -8 10 -23 13 -39 10 -21 -4 -57 13 -161 76 -74 44 -135 80
-135 79 -1 0 -39 -39 -86 -86z m124 -104 c20 -12 36 -22 36 -23 0 -2 -9 -11
-19 -20 -19 -17 -20 -16 -41 23 -11 23 -18 41 -16 41 3 0 21 -9 40 -21z"/>
<path d="M7665 6699 c-4 -5 -4 -21 -1 -33 5 -20 -9 -36 -85 -104 -78 -70 -93
-79 -109 -70 -14 9 -22 9 -34 -1 -22 -18 -20 -27 12 -59 15 -16 49 -51 75 -80
26 -29 52 -52 57 -52 6 0 10 -4 10 -10 0 -10 158 -217 200 -260 14 -15 26 -30
27 -33 7 -19 66 -118 73 -122 12 -8 40 24 40 45 0 14 18 30 35 30 2 0 13 -16
25 -35 18 -29 20 -38 9 -51 -8 -10 -21 -13 -37 -9 -13 3 -30 1 -37 -5 -10 -9
-2 -28 41 -97 30 -47 54 -90 54 -95 0 -5 10 -8 23 -6 17 2 22 9 20 30 -1 22
19 49 105 139 59 61 108 115 110 120 2 4 -14 34 -36 66 -21 32 -49 77 -62 101
-13 23 -27 42 -31 42 -15 0 -31 -42 -25 -66 4 -13 5 -24 4 -24 -2 0 -56 -13
-120 -30 -104 -26 -121 -28 -148 -16 l-31 13 55 33 c58 36 66 49 41 70 -12 10
-24 9 -61 -5 l-46 -17 -31 30 c-17 17 -29 33 -26 36 2 2 74 12 159 21 85 9
160 22 167 28 9 9 -8 36 -69 112 -44 55 -92 115 -107 134 l-26 33 -62 -46
c-64 -47 -74 -64 -49 -85 11 -10 23 -8 56 9 l42 22 29 -28 c15 -15 26 -30 24
-35 -7 -10 -75 -19 -211 -27 l-110 -7 -1 33 c-1 29 9 41 90 112 67 58 95 76
107 70 9 -5 22 -3 33 5 17 12 12 20 -60 99 -75 84 -95 97 -108 75z m428 -744
c-15 -19 -30 -35 -33 -35 -6 0 -33 41 -28 44 4 3 71 24 81 25 4 1 -5 -15 -20
-34z"/>
<path d="M1653 6421 c-17 -11 -51 -46 -74 -78 -23 -32 -67 -91 -98 -131 -44
-59 -52 -76 -40 -83 8 -5 24 -7 36 -4 16 4 41 -10 90 -46 98 -75 122 -98 125
-128 5 -47 34 -28 122 84 90 115 111 162 100 221 -10 53 -73 127 -135 158 -63
31 -84 32 -126 7z m58 -149 c60 -39 99 -87 99 -123 0 -52 -24 -45 -122 32 -51
40 -95 74 -97 76 -2 2 4 12 14 23 25 27 53 25 106 -8z"/>
<path d="M1331 5983 c-6 -16 -34 -64 -61 -108 -42 -70 -47 -82 -34 -95 12 -12
18 -12 34 -2 24 15 26 13 147 -62 60 -37 83 -57 83 -71 0 -12 4 -25 9 -30 6
-6 -22 -11 -77 -13 -48 -2 -89 -8 -92 -13 -4 -5 -12 6 -18 25 -16 44 -42 66
-85 73 -32 5 -41 1 -70 -28 -19 -19 -43 -59 -54 -89 -12 -30 -39 -93 -61 -140
-22 -47 -38 -88 -36 -92 8 -12 42 -10 50 3 8 14 39 6 132 -38 89 -42 112 -59
112 -85 0 -17 4 -19 30 -22 9 -1 100 186 100 205 0 16 -34 18 -51 3 -18 -16
-21 -16 -59 1 -44 20 -47 26 -26 44 14 12 64 10 133 -5 20 -4 27 5 53 63 16
38 34 75 39 83 17 26 176 294 179 301 2 4 -21 24 -50 45 -29 21 -57 44 -61 51
-14 22 -34 14 -47 -18 -12 -29 -11 -32 24 -68 41 -42 42 -48 21 -79 l-16 -22
-67 42 c-118 74 -134 88 -127 116 4 17 0 28 -12 38 -25 19 -29 18 -42 -13z
m-103 -459 c22 -15 32 -74 13 -74 -8 0 -69 32 -89 46 -2 1 1 12 8 23 13 25 37
27 68 5z"/>
<path d="M8270 5795 c-59 -26 -69 -37 -49 -61 10 -12 25 -15 55 -11 39 4 64
-5 64 -24 0 -10 -186 -99 -205 -99 -8 0 -20 9 -27 20 -14 22 -38 26 -55 9 -8
-8 6 -44 49 -132 33 -67 62 -124 63 -125 2 -2 13 -1 25 3 17 5 21 13 18 41 -1
18 2 38 7 43 15 13 173 81 190 81 24 0 17 -24 -15 -55 -31 -30 -38 -53 -19
-72 8 -8 29 -1 77 25 37 19 69 36 71 38 1 1 -35 79 -80 173 -55 111 -89 170
-99 170 -8 -1 -40 -12 -70 -24z"/>
<path d="M8510 5430 c-8 -5 -15 -19 -15 -31 0 -15 -10 -25 -35 -34 -178 -67
-183 -68 -201 -56 -25 15 -56 14 -62 -1 -2 -7 6 -35 18 -63 12 -27 30 -74 39
-102 10 -29 21 -53 26 -53 23 0 40 14 40 35 0 20 14 27 115 61 96 33 118 37
135 27 15 -10 50 -9 50 1 0 11 -79 209 -86 216 -5 5 -15 5 -24 0z"/>
<path d="M1012 5224 c-41 -21 -76 -80 -98 -163 -27 -108 -2 -172 89 -217 65
-33 149 -36 198 -8 50 29 91 118 97 208 3 62 1 75 -20 105 -49 73 -192 113
-266 75z m143 -161 c55 -23 75 -42 75 -69 0 -43 -86 -44 -179 -3 -79 35 -107
80 -60 98 28 10 112 -3 164 -26z"/>
<path d="M8434 5114 c-22 -8 -56 -30 -75 -50 -32 -34 -34 -39 -34 -107 1 -91
25 -164 70 -207 46 -45 122 -52 207 -20 104 39 133 102 104 225 -30 129 -78
176 -176 174 -30 0 -73 -7 -96 -15z m214 -148 c36 -36 -93 -106 -192 -106 -53
0 -70 12 -63 41 8 30 36 48 112 71 65 19 120 17 143 -6z"/>
<path d="M842 4786 c-7 -35 -12 -68 -12 -75 0 -17 41 -13 55 5 10 15 16 14 63
-6 58 -25 59 -40 3 -40 -74 0 -130 -12 -135 -29 -22 -77 -24 -74 69 -125 47
-27 85 -50 85 -52 0 -2 -27 -4 -60 -4 -55 0 -61 2 -70 25 -5 14 -17 25 -28 25
-15 0 -20 -14 -31 -82 -26 -160 -25 -148 -3 -148 12 0 25 8 31 18 8 15 29 17
168 19 l158 3 7 37 c3 21 8 44 10 52 2 9 -30 34 -86 67 l-88 52 38 6 c22 3 65
8 97 12 31 3 59 9 62 13 2 4 7 29 10 57 l6 49 -138 70 c-76 39 -140 73 -141
78 -7 15 -34 37 -46 37 -8 0 -17 -25 -24 -64z"/>
<path d="M8714 4686 c-7 -31 -12 -33 -140 -47 -97 -12 -107 -11 -116 4 -5 9
-21 17 -35 17 -23 0 -25 -3 -19 -32 4 -18 9 -59 13 -91 6 -55 7 -58 32 -55 20
2 27 10 31 33 5 28 10 31 65 42 33 6 61 10 63 8 2 -2 -35 -40 -82 -85 l-85
-82 6 -47 c3 -25 9 -49 12 -54 4 -4 72 1 150 11 141 18 144 18 161 -1 25 -26
56 -19 53 13 -9 90 -18 132 -30 137 -18 7 -43 -15 -43 -38 0 -11 -9 -20 -22
-23 -49 -10 -88 -12 -88 -4 0 4 3 8 8 8 4 1 38 29 76 63 l68 63 -12 92 c-12
86 -14 92 -36 92 -17 0 -25 -7 -30 -24z"/>
<path d="M1094 1714 c14 -36 105 -311 196 -594 119 -370 163 -506 254 -785 41
-126 81 -249 88 -272 10 -33 18 -42 41 -47 16 -3 1426 -6 3132 -6 2470 0 3105
3 3113 12 5 7 85 245 177 528 91 283 213 660 271 836 57 177 104 327 104 334
0 6 -21 -6 -47 -27 -27 -22 -77 -59 -113 -83 -36 -24 -66 -47 -68 -52 -2 -4
-8 -8 -12 -8 -5 0 -43 -20 -84 -45 -379 -230 -906 -351 -1446 -331 -305 12
-621 35 -745 55 -291 48 -378 56 -580 55 -222 -1 -303 -11 -449 -54 -55 -17
-111 -30 -126 -30 -14 0 -82 16 -151 35 -158 45 -308 59 -534 51 -176 -6 -187
-7 -472 -50 -338 -51 -992 -73 -1245 -42 -478 60 -869 211 -1203 467 -33 25
-71 52 -84 59 -22 11 -23 11 -17 -6z m3747 -739 c20 -49 82 -207 139 -350 56
-143 109 -273 117 -290 24 -47 53 -74 90 -81 27 -5 33 -11 33 -33 l0 -26 -218
0 -217 0 -3 26 c-3 24 1 27 40 32 72 10 78 32 37 142 l-20 55 -143 0 -143 0
-23 -69 c-31 -89 -22 -116 42 -128 36 -7 43 -12 43 -32 l0 -24 -155 -1 -155
-1 -3 27 c-2 21 1 28 13 28 34 0 82 32 103 68 11 20 41 87 66 147 24 61 66
160 91 220 26 61 67 159 92 219 67 166 69 168 106 164 30 -3 34 -8 68 -93z
m976 79 c88 -18 139 -41 203 -93 62 -50 75 -66 115 -146 58 -116 64 -232 21
-353 -54 -151 -215 -266 -394 -280 -156 -13 -271 17 -377 97 -59 44 -128 141
-147 204 -19 65 -16 213 5 277 77 226 314 348 574 294z m-2207 -34 c0 -25 -4
-28 -41 -33 -74 -10 -75 -34 -15 -224 24 -76 54 -171 66 -210 12 -40 23 -73
25 -73 2 0 31 87 65 193 129 401 113 362 152 365 41 4 28 32 149 -331 40 -119
76 -214 80 -210 20 23 112 333 117 393 5 74 -3 88 -61 99 -26 6 -32 12 -32 31
l0 25 143 2 142 2 0 -30 c0 -22 -5 -29 -19 -29 -51 0 -51 0 -299 -735 -26 -78
-28 -80 -60 -80 -38 0 -30 -19 -142 322 -41 123 -75 221 -77 220 -1 -2 -43
-118 -92 -258 -49 -140 -92 -261 -95 -270 -5 -10 -18 -16 -39 -15 l-32 1 -57
165 c-31 91 -89 261 -129 379 -75 222 -101 271 -145 271 -20 0 -24 5 -24 29
l0 30 210 -1 210 0 0 -28z"/>
<path d="M4697 793 c-6 -10 -107 -260 -107 -265 0 -8 208 -9 213 -1 3 4 -19
68 -48 141 -29 74 -55 130 -58 125z"/>
<path d="M5632 987 c-95 -36 -153 -130 -173 -281 -21 -160 18 -339 87 -402 88
-82 224 -82 309 0 63 61 87 133 92 276 8 202 -44 343 -146 395 -43 22 -127 28
-169 12z"/>
</g>
</svg>
